<svg xmlns="http://www.w3.org/2000/svg" width="120" height="104" viewBox="0 0 120 104">
  <defs>
    <pattern id="honeycomb" x="0" y="0" width="120" height="104" patternUnits="userSpaceOnUse">
      <!-- First row hexagons -->
      <polygon points="30,8 50,0 70,8 70,26 50,34 30,26" fill="#FFD700" stroke="#1a1a1a" stroke-width="3"/>
      <polygon points="90,8 110,0 130,8 130,26 110,34 90,26" fill="#FFD700" stroke="#1a1a1a" stroke-width="3"/>

      <!-- Second row hexagons (offset) -->
      <polygon points="0,43 20,35 40,43 40,61 20,69 0,61" fill="#FFD700" stroke="#1a1a1a" stroke-width="3"/>
      <polygon points="60,43 80,35 100,43 100,61 80,69 60,61" fill="#FFD700" stroke="#1a1a1a" stroke-width="3"/>
      <polygon points="120,43 140,35 160,43 160,61 140,69 120,61" fill="#FFD700" stroke="#1a1a1a" stroke-width="3"/>

      <!-- Third row hexagons -->
      <polygon points="30,78 50,70 70,78 70,96 50,104 30,96" fill="#FFD700" stroke="#1a1a1a" stroke-width="3"/>
      <polygon points="90,78 110,70 130,78 130,96 110,104 90,96" fill="#FFD700" stroke="#1a1a1a" stroke-width="3"/>
    </pattern>
  </defs>
  <rect width="100%" height="100%" fill="#000000"/>
  <rect width="100%" height="100%" fill="url(#honeycomb)"/>
</svg>
