<svg version="1.1" id="Layer_1" xmlns="http://www.w3.org/2000/svg" xmlns:xlink="http://www.w3.org/1999/xlink" x="0px" y="0px"
	 width="100%" viewBox="0 0 1024 1024" enable-background="new 0 0 1024 1024" xml:space="preserve">
<path fill="#FFFFFF" opacity="1.000000" stroke="none" 
	d="
M1025.000000,391.000000 
	C1025.000000,602.666687 1025.000000,813.833313 1025.000000,1025.000000 
	C683.666687,1025.000000 342.333344,1025.000000 1.000000,1025.000000 
	C1.000000,683.666687 1.000000,342.333344 1.000000,1.000000 
	C342.333344,1.000000 683.666687,1.000000 1025.000000,1.000000 
	C1025.000000,130.833328 1025.000000,260.666656 1025.000000,391.000000 
M808.514587,104.004272 
	C791.010315,92.700455 774.025208,80.476067 755.908447,70.258125 
	C690.411377,33.317471 619.691345,13.362393 544.760437,9.381314 
	C519.580933,8.043530 494.194122,9.937344 468.931335,11.030552 
	C444.732544,12.077717 420.910492,16.470051 397.443146,22.198061 
	C313.181427,42.765034 239.347321,82.869781 176.268784,142.374985 
	C126.663376,189.170303 89.231819,244.484070 63.275368,307.534576 
	C42.068161,359.048767 30.163914,412.654663 28.163118,468.334961 
	C27.200045,495.136383 28.516333,521.874084 31.827755,548.542358 
	C35.564018,578.632019 41.950760,608.087769 51.687202,636.766235 
	C87.920700,743.491272 152.605103,828.540894 246.796356,890.626465 
	C326.301697,943.031921 413.833374,970.312195 509.154755,971.800293 
	C536.448730,972.226440 563.621887,970.184265 590.675049,966.174805 
	C620.621582,961.736511 649.961304,954.878906 678.310120,944.378723 
	C775.146240,908.511292 854.518921,849.419128 914.434753,764.961487 
	C967.467468,690.206238 996.664368,606.912903 1001.744812,515.420471 
	C1003.702515,480.165100 1001.993652,444.983215 996.179688,410.009827 
	C990.645142,376.716858 981.729797,344.444855 969.316284,313.116791 
	C949.092834,262.078583 920.874939,215.839920 884.756470,174.543427 
	C862.023254,148.551117 836.949463,124.956230 808.514587,104.004272 
z"/>
<path fill="#010100" opacity="1.000000" stroke="none" 
	d="
M808.793579,104.228966 
	C836.949463,124.956230 862.023254,148.551117 884.756470,174.543427 
	C920.874939,215.839920 949.092834,262.078583 969.316284,313.116791 
	C981.729797,344.444855 990.645142,376.716858 996.179688,410.009827 
	C1001.993652,444.983215 1003.702515,480.165100 1001.744812,515.420471 
	C996.664368,606.912903 967.467468,690.206238 914.434753,764.961487 
	C854.518921,849.419128 775.146240,908.511292 678.310120,944.378723 
	C649.961304,954.878906 620.621582,961.736511 590.675049,966.174805 
	C563.621887,970.184265 536.448730,972.226440 509.154755,971.800293 
	C413.833374,970.312195 326.301697,943.031921 246.796356,890.626465 
	C152.605103,828.540894 87.920700,743.491272 51.687202,636.766235 
	C41.950760,608.087769 35.564018,578.632019 31.827755,548.542358 
	C28.516333,521.874084 27.200045,495.136383 28.163118,468.334961 
	C30.163914,412.654663 42.068161,359.048767 63.275368,307.534576 
	C89.231819,244.484070 126.663376,189.170303 176.268784,142.374985 
	C239.347321,82.869781 313.181427,42.765034 397.443146,22.198061 
	C420.910492,16.470051 444.732544,12.077717 468.931335,11.030552 
	C494.194122,9.937344 519.580933,8.043530 544.760437,9.381314 
	C619.691345,13.362393 690.411377,33.317471 755.908447,70.258125 
	C774.025208,80.476067 791.010315,92.700455 808.793579,104.228966 
M713.463318,766.010681 
	C723.856750,772.168518 734.203674,778.408020 744.702393,784.380676 
	C746.013855,785.126709 748.502625,785.110474 749.813049,784.352783 
	C765.998779,774.994873 782.105347,765.497070 798.099670,755.816162 
	C799.538635,754.945190 800.859863,752.560547 800.878113,750.864258 
	C801.075806,732.535767 801.077148,714.203552 800.874146,695.875183 
	C800.855530,694.195557 799.456543,691.922974 798.010559,690.974182 
	C792.200012,687.161438 785.833435,684.157043 780.213013,680.104065 
	C773.812805,675.488831 766.797119,670.980103 762.131042,664.842346 
	C745.965088,643.577393 752.035767,614.801331 775.576904,600.361084 
	C801.799438,584.276062 828.349365,568.716736 854.963074,553.284424 
	C860.003662,550.361572 861.927429,547.357483 861.876770,541.368713 
	C861.540894,501.711029 861.726257,462.049103 861.580811,422.389099 
	C861.573792,420.461273 860.607910,417.613159 859.160278,416.749603 
	C822.917969,395.130249 786.567993,373.690857 750.142334,352.381653 
	C748.693054,351.533813 745.967773,351.603882 744.430176,352.396606 
	C738.847778,355.274628 733.525208,358.654907 728.091980,361.824097 
	C713.735535,370.198090 699.372559,378.560791 684.641052,387.144165 
	C687.984497,388.981873 690.894897,390.461945 693.688782,392.136444 
	C713.657471,404.104156 724.092529,421.487061 724.055176,445.032593 
	C724.027954,462.201843 718.686462,477.840302 711.027588,492.862915 
	C702.274841,510.031097 691.635193,525.864136 676.000183,537.520508 
	C671.701294,540.725525 669.966003,544.180176 670.027039,549.069275 
	C670.223267,564.794800 678.184143,575.979126 691.002380,584.057190 
	C700.799683,590.231445 711.129944,595.589417 720.723572,602.052063 
	C749.611816,621.512329 748.410767,659.939270 718.578369,677.798340 
	C711.338928,682.132141 704.004272,686.312805 696.876770,690.822205 
	C695.523376,691.678589 694.139709,693.745361 694.124451,695.267273 
	C693.936890,713.929260 693.938782,732.594421 694.114380,751.256653 
	C694.129333,752.846924 695.343628,755.012268 696.674744,755.900391 
	C701.901428,759.387329 707.398132,762.469604 713.463318,766.010681 
M600.067932,222.638809 
	C599.887085,221.151535 599.706238,219.664261 599.346375,216.704727 
	C616.279602,225.987320 632.142761,234.683319 649.252319,244.062592 
	C646.014038,238.385986 643.750488,233.589554 640.752686,229.307083 
	C627.983521,211.065659 611.390198,196.695557 593.166199,184.277969 
	C547.197021,152.955154 496.271362,135.952148 440.814423,131.804276 
	C406.733917,129.255234 373.573334,133.238159 341.383179,144.335526 
	C309.274323,155.404831 280.532013,172.702805 254.881165,194.831284 
	C240.186966,207.507690 226.464859,221.310913 211.591537,235.276840 
	C230.760284,240.959320 243.570389,251.739212 251.597794,268.058990 
	C252.979660,270.868317 254.249084,271.113647 257.323792,270.479431 
	C272.504578,267.348053 287.714600,264.178680 303.058655,262.075897 
	C315.143799,260.419739 327.438751,260.294586 340.009430,259.465057 
	C322.370422,242.322403 299.507324,236.242416 275.894714,228.705109 
	C299.924530,224.049164 322.535828,223.681076 345.110229,227.189850 
	C385.307648,233.437775 421.946259,248.840820 454.837585,272.565887 
	C471.913300,284.882904 487.867249,298.755157 503.681702,311.407776 
	C503.808228,311.872681 503.654938,311.113037 503.397003,310.390717 
	C498.524597,296.748474 493.581207,283.131134 488.804901,269.455383 
	C487.796967,266.569550 487.391663,263.473206 486.708679,260.473877 
	C487.202789,260.224274 487.696899,259.974670 488.191010,259.725098 
	C515.729675,280.992828 543.268311,302.260559 571.020142,323.692963 
	C573.948608,320.028625 577.179810,316.225952 580.150330,312.229523 
	C599.937927,285.608398 606.668396,256.010162 600.067932,222.638809 
M364.945221,486.478333 
	C371.750793,474.086121 380.771851,463.428802 391.435699,454.300964 
	C413.040131,435.808563 436.420807,434.617279 459.546173,451.341919 
	C469.617035,458.625336 478.743988,467.256165 488.022034,475.584290 
	C505.098022,490.911926 523.953003,503.176636 545.909119,510.303772 
	C556.390015,513.705933 567.152466,516.312622 578.153870,514.610596 
	C595.747681,511.888641 609.094849,495.829956 610.673401,476.617035 
	C588.379089,470.061584 569.002502,458.921478 554.192078,440.668854 
	C549.516052,434.906036 545.731873,428.381561 546.270447,420.808350 
	C547.001343,410.531006 554.900391,406.544128 563.540527,404.066223 
	C580.797058,399.117188 598.399170,400.063446 615.982422,401.569672 
	C623.148254,402.183502 630.283936,403.149689 637.433289,403.955566 
	C636.412476,402.861481 635.237732,402.388519 634.044617,401.967682 
	C615.416443,395.397156 596.076965,390.502319 579.640930,378.763397 
	C578.791870,378.156952 577.465759,378.035645 576.353577,378.007355 
	C553.550293,377.426208 532.464722,383.213470 513.137573,395.305634 
	C501.134552,402.815430 490.224976,411.620148 481.781738,423.114899 
	C457.138580,403.727295 426.224396,398.896881 399.537842,406.980865 
	C347.545319,422.730560 313.384094,457.704956 297.341949,509.314667 
	C287.937103,539.571411 298.733978,562.997070 326.391418,578.965881 
	C349.559570,592.342712 375.113129,598.094543 401.179718,601.911255 
	C414.469696,603.857178 427.906891,604.776001 441.251770,606.374023 
	C459.502502,608.559509 477.670380,611.834595 495.979309,613.041199 
	C522.393860,614.782166 548.311646,611.214111 572.539062,599.848999 
	C594.484192,589.554443 612.908997,575.024414 624.738098,553.218750 
	C626.351196,550.245117 626.368286,548.625549 623.115479,546.535583 
	C605.508850,535.223389 586.010254,532.940308 565.841492,534.340454 
	C545.130005,535.778259 525.163025,541.215820 505.210144,546.627258 
	C485.049469,552.095032 464.668793,556.709839 443.740967,557.684326 
	C421.492096,558.720215 399.822479,555.019531 378.978088,547.198914 
	C368.399536,543.229980 358.112091,538.485229 346.875946,533.746582 
	C353.019165,517.458069 358.751160,502.259949 364.945221,486.478333 
M117.989197,408.493378 
	C112.659492,428.054901 106.648422,447.461700 102.163979,467.215118 
	C95.853928,495.010162 91.592308,523.175171 89.766388,551.693909 
	C88.240440,575.527527 88.202545,599.155518 94.990623,622.344604 
	C100.655891,641.697937 108.818779,659.903259 119.719963,677.651917 
	C120.146584,669.135620 120.726143,661.376465 120.889565,653.608459 
	C121.435585,627.653687 123.059662,601.811829 126.856491,576.087891 
	C131.093307,547.382996 138.302368,519.502319 148.565796,492.404846 
	C152.025925,483.269379 156.012039,474.333099 159.898804,464.965851 
	C143.795258,473.206207 130.365570,484.266876 117.568008,498.194977 
	C119.834084,476.021179 127.593689,456.884308 135.775299,437.989655 
	C144.010452,418.971405 153.100540,400.323364 161.426651,382.353394 
	C152.530121,375.497253 143.832932,368.794739 134.792297,361.827545 
	C129.249939,377.047119 123.668816,392.373108 117.989197,408.493378 
M810.564636,161.962509 
	C807.298706,160.020462 804.145813,157.833679 800.714600,156.249725 
	C799.218262,155.558945 796.759033,155.418167 795.404175,156.193436 
	C781.341248,164.240570 767.375061,172.460571 753.514160,180.850967 
	C752.214111,181.637894 751.127136,183.908386 751.108093,185.503998 
	C750.927307,200.650650 751.068298,215.800934 750.933655,230.948547 
	C750.909912,233.617737 751.714539,235.082932 754.045837,236.435638 
	C767.773743,244.401108 781.344604,252.638611 795.121277,260.517029 
	C796.705994,261.423309 799.686401,261.461365 801.260925,260.566650 
	C814.916992,252.806702 828.452698,244.828537 841.861450,236.648621 
	C843.416016,235.700272 844.839294,233.142029 844.868286,231.307236 
	C845.107544,216.162216 844.897278,201.010376 845.093445,185.864120 
	C845.132141,182.875305 843.952881,181.451416 841.616760,180.100388 
	C831.450378,174.221024 821.358032,168.213455 810.564636,161.962509 
M454.476349,523.195435 
	C449.056152,513.033813 443.635956,502.872192 437.984222,492.276520 
	C429.813385,504.593750 422.910248,516.666382 411.250824,525.165405 
	C399.213623,511.866577 397.971527,495.691071 396.800720,479.439209 
	C387.887085,486.221619 380.219116,495.291046 376.726196,503.131531 
	C371.115265,515.726318 374.523804,524.698242 387.057373,529.965942 
	C404.333191,537.226685 422.401123,541.296082 441.101562,540.810364 
	C452.982147,540.501770 464.928345,538.962036 476.641632,536.847351 
	C494.337799,533.652527 511.158722,527.351074 527.362244,520.811157 
	C512.263062,510.557007 497.299347,500.248566 482.179504,490.174316 
	C470.632782,482.480804 459.090332,474.745239 447.178406,467.645020 
	C433.825134,459.685699 420.103302,460.377258 406.796967,468.122894 
	C405.402039,468.934875 403.909912,471.527710 404.187927,472.959290 
	C406.521912,484.976929 409.258850,496.916321 412.151337,510.145599 
	C422.134247,498.583984 431.061920,488.244476 440.627930,477.165680 
	C445.383392,487.673523 450.211639,497.243927 454.023376,507.203339 
	C456.094543,512.614990 458.266693,516.084045 464.687256,515.220764 
	C466.908539,514.922058 469.276855,515.717957 471.578125,516.013306 
	C478.027435,516.840942 484.476807,517.668213 492.305878,518.672668 
	C479.630676,525.948792 467.697235,527.571289 454.476349,523.195435 
M238.543716,304.954071 
	C245.916443,312.866333 253.289169,320.778595 261.724335,329.831085 
	C259.605103,319.656830 258.197723,310.821259 255.889389,302.227722 
	C250.130447,280.788330 238.173355,264.200653 217.139832,255.333298 
	C185.141846,241.843521 151.607254,255.740707 140.500336,286.981689 
	C132.006729,310.872009 139.577362,339.947266 158.685852,357.661896 
	C173.825363,371.697113 191.855316,378.744385 212.881653,380.687897 
	C207.999771,376.563568 203.486725,372.990051 199.242050,369.122009 
	C183.719376,354.976685 170.291153,339.225494 164.887573,318.391357 
	C163.185486,311.828735 162.469940,304.414978 163.659592,297.815582 
	C166.564560,281.700562 180.817688,277.815369 195.889359,280.505951 
	C212.582916,283.486115 226.078690,292.786285 238.543716,304.954071 
M323.940247,884.574097 
	C330.806030,879.519592 333.166565,872.582397 333.116882,864.260193 
	C333.066956,855.895813 330.466339,849.274353 323.594025,845.957581 
	C325.972931,842.920898 329.155823,840.244202 330.555450,836.835388 
	C337.251251,820.528137 326.579987,804.418640 308.947845,804.045776 
	C296.306274,803.778442 283.649933,804.179688 271.010193,803.872009 
	C266.369598,803.758911 265.211548,805.839172 265.210938,809.777100 
	C265.207062,834.738770 265.186096,859.700439 265.124664,884.661987 
	C265.115723,888.299927 266.371887,890.131348 270.391266,890.064575 
	C281.537903,889.879272 292.730652,890.555237 303.823212,889.754883 
	C310.405518,889.279968 316.832855,886.657471 323.940247,884.574097 
M857.877380,351.602417 
	C865.129150,355.898773 872.318970,360.306946 879.689209,364.389404 
	C881.031616,365.132935 883.483704,365.206512 884.790649,364.468567 
	C894.709961,358.867432 904.555176,353.120392 914.203064,347.067444 
	C915.878235,346.016510 917.416565,343.332184 917.475403,341.356354 
	C917.792542,330.712311 917.788452,320.048889 917.474243,309.404572 
	C917.414856,307.394897 915.954773,304.647064 914.286194,303.593262 
	C904.782471,297.590759 895.079102,291.892639 885.280457,286.381195 
	C883.815308,285.557068 881.087280,285.550385 879.626038,286.375061 
	C868.699341,292.541718 857.944458,299.012726 846.996826,305.470337 
	C846.996826,314.774841 847.670837,324.154938 846.804626,333.390625 
	C845.961731,342.377777 848.630249,348.273865 857.877380,351.602417 
M427.970825,343.600891 
	C428.933990,339.442688 429.897186,335.284454 430.899292,330.958252 
	C410.678131,321.410248 389.987640,311.640656 368.377228,301.436676 
	C374.533020,337.146332 389.116791,365.965118 423.333557,379.568970 
	C453.664734,391.627960 482.438843,384.527740 510.338684,367.863342 
	C498.034027,361.747925 486.707245,356.118469 475.361664,350.479706 
	C469.289185,364.201752 459.616119,370.140198 447.684753,367.849731 
	C436.083038,365.622528 428.159210,356.239075 427.970825,343.600891 
M409.117950,741.367798 
	C416.265289,751.914856 423.790009,762.232300 430.405548,773.103027 
	C433.867584,778.791809 437.729156,780.974365 444.347321,780.471252 
	C449.218323,780.101013 450.968201,778.920410 450.913696,773.820679 
	C450.675201,751.502808 450.829376,729.180969 450.825439,706.860535 
	C450.823273,694.488708 450.807678,694.704895 438.259766,694.605957 
	C433.342163,694.567261 432.000183,696.350037 432.068390,701.003174 
	C432.286438,715.879578 432.149353,730.761169 432.149353,745.833618 
	C431.518585,745.036926 430.769562,744.218079 430.162384,743.304871 
	C421.100555,729.675537 412.038422,716.046387 403.017059,702.390198 
	C397.736359,694.396423 393.594269,692.909973 384.180969,695.728455 
	C384.180969,723.798584 384.180969,751.839355 384.180969,780.150146 
	C387.962311,780.150146 391.281342,780.173401 394.599976,780.145325 
	C401.915588,780.083557 401.926666,780.064758 401.927734,772.922302 
	C401.929749,759.091248 401.928284,745.260254 401.928284,731.271851 
	C404.192383,734.352722 406.523651,737.524902 409.117950,741.367798 
M257.179443,749.467285 
	C257.180695,758.132629 257.265320,766.799133 257.140656,775.462646 
	C257.093170,778.764587 258.026489,780.453247 261.682617,780.137085 
	C264.659332,779.879700 267.709106,779.818115 270.669159,780.162354 
	C275.698822,780.747437 276.813080,778.435425 276.777588,773.857666 
	C276.606964,751.862671 276.706970,729.865601 276.711334,707.869263 
	C276.713898,694.958069 276.714264,694.958008 263.751892,694.880188 
	C256.993896,694.839539 256.991577,694.839600 256.989685,701.720398 
	C256.987274,710.473755 256.989105,719.227051 256.989105,727.872986 
	C246.349350,727.872986 236.394699,727.872986 226.591400,727.872986 
	C226.330002,727.588379 226.119553,727.466492 226.118576,727.342834 
	C226.068924,721.016968 226.011642,714.690979 226.008621,708.364990 
	C226.002197,694.931335 226.006561,695.188599 212.720459,694.796570 
	C207.547836,694.643982 206.128510,696.321533 206.170685,701.262695 
	C206.356964,723.090820 206.240326,744.921509 206.227798,766.751282 
	C206.219894,780.530884 206.215729,780.342712 219.941422,780.360474 
	C224.553513,780.366455 226.029953,778.937439 225.894257,774.349854 
	C225.599808,764.395630 225.803482,754.426636 225.803482,744.463196 
	C236.418732,744.463196 246.558273,744.463196 256.958923,744.463196 
	C257.035217,745.855530 257.106384,747.153931 257.179443,749.467285 
M497.579895,874.902832 
	C498.726624,871.670349 500.660034,868.489319 500.875153,865.195984 
	C501.567566,854.595032 502.374603,843.908691 501.754028,833.336548 
	C500.822937,817.473694 490.628418,806.718384 474.886322,805.128967 
	C462.846466,803.913391 450.639343,804.424072 438.517212,803.914856 
	C434.445862,803.743835 433.176300,805.516663 433.238770,809.182556 
	C433.321045,814.013489 433.271942,818.846680 433.272736,823.678894 
	C433.276062,843.674255 433.302979,863.669617 433.254486,883.664856 
	C433.245789,887.251648 433.823364,889.876038 438.358734,889.737793 
	C449.841217,889.387817 461.379211,889.808411 472.800507,888.824158 
	C482.539398,887.984802 491.485382,884.435730 497.579895,874.902832 
M682.956055,871.498291 
	C682.956299,873.330627 682.955078,875.162903 682.956970,876.995239 
	C682.969482,889.399963 682.969666,889.399902 695.262695,889.376526 
	C701.822449,889.364075 701.930786,889.271973 701.944092,882.672791 
	C701.961060,874.270752 701.948181,865.868713 701.948181,857.332703 
	C705.417175,857.332703 708.267151,857.613708 711.037292,857.263733 
	C714.748596,856.794739 716.650513,858.223083 718.192505,861.581055 
	C720.872192,867.416443 724.758118,872.754150 726.977661,878.731567 
	C730.469849,888.136536 736.674316,890.991028 746.163513,889.509827 
	C752.083008,888.585815 752.655579,888.122620 749.657227,883.027588 
	C744.151978,873.672913 738.699097,864.287354 733.098755,854.699524 
	C739.775757,852.300964 744.697998,848.304016 747.167236,841.626892 
	C752.952087,825.983337 746.539001,805.065796 721.512024,804.072327 
	C710.535583,803.636597 699.521912,804.200989 688.536560,803.897095 
	C684.105835,803.774536 682.833374,805.169128 682.875366,809.534912 
	C683.070923,829.854736 682.958618,850.177429 682.956055,871.498291 
M352.085083,775.698242 
	C352.889496,775.111511 353.731903,774.569946 354.492249,773.930786 
	C360.501892,768.878662 364.126923,762.102417 364.669586,754.630249 
	C365.495972,743.252563 366.055023,731.624023 364.629181,720.367859 
	C362.442383,703.104675 347.957367,692.886902 328.562378,693.513123 
	C309.889923,694.115967 296.599243,702.628662 294.884460,722.015686 
	C293.896027,733.190796 294.346954,744.576965 295.130005,755.799805 
	C295.818176,765.662048 301.159393,773.495605 310.182373,777.666016 
	C324.024139,784.063721 337.978882,784.057556 352.085083,775.698242 
M578.811035,883.389038 
	C580.752319,881.134949 583.063416,879.102417 584.569824,876.587830 
	C590.541931,866.618835 589.357239,855.524597 588.933044,844.635498 
	C588.894897,843.656494 586.816711,841.969360 585.657776,841.944946 
	C575.530579,841.731140 565.396973,841.821411 554.892944,841.821411 
	C554.741516,844.483337 554.654358,846.777405 554.471558,849.063904 
	C554.129517,853.342285 555.987854,855.142456 560.319458,854.792297 
	C563.417725,854.541931 566.552490,854.743652 569.999634,854.743652 
	C569.396790,861.618958 569.872742,868.704651 563.861877,872.267334 
	C560.069580,874.515015 554.765686,874.706604 550.105347,874.876831 
	C543.524109,875.117188 537.718689,871.256958 537.258850,864.842468 
	C536.411072,853.017029 536.311523,841.007568 537.427673,829.219421 
	C538.123474,821.871704 544.652039,818.452026 553.549805,818.177063 
	C561.700928,817.925171 565.410583,820.493774 568.477173,828.345459 
	C568.918884,829.476624 569.780640,831.299622 570.507141,831.328796 
	C576.531860,831.570679 582.570557,831.465759 590.095154,831.465759 
	C587.811707,825.592651 586.779968,820.792908 584.289124,816.935242 
	C576.841553,805.400635 565.118469,802.491577 552.316711,802.790649 
	C533.963135,803.219482 520.660095,812.483521 518.361328,827.923279 
	C516.758118,838.690918 516.958557,849.814270 517.286926,860.750671 
	C517.494690,867.673218 520.019531,874.234985 524.989929,879.594910 
	C537.589905,893.182495 562.064392,895.190247 578.811035,883.389038 
M507.500366,744.746521 
	C512.665283,744.766418 517.856079,745.085754 522.980774,744.641479 
	C524.736877,744.489258 527.293823,742.724426 527.775574,741.167358 
	C528.575378,738.582642 528.491333,735.440063 527.798523,732.788757 
	C527.406921,731.290222 525.172424,729.474609 523.566956,729.252136 
	C519.807007,728.730896 515.925903,729.083008 512.093872,729.082764 
	C505.178986,729.082214 498.264130,729.082581 491.433044,729.082581 
	C491.433044,722.637451 491.433044,716.877075 491.433044,710.799500 
	C501.303070,710.799500 510.940338,710.820679 520.577454,710.794128 
	C532.427368,710.761536 530.804993,711.420471 531.168945,700.307800 
	C531.313477,695.895447 529.906433,694.509338 525.577820,694.558716 
	C510.085480,694.735535 494.589813,694.605530 479.095398,694.615295 
	C472.357697,694.619568 472.273682,694.720337 472.273621,701.732849 
	C472.273438,725.724915 472.278503,749.716919 472.299408,773.708984 
	C472.300720,775.201233 472.045013,776.896973 472.655518,778.127686 
	C473.253754,779.333740 474.798462,780.874329 475.941345,780.885620 
	C493.100586,781.054260 510.263458,781.083313 527.420471,780.820068 
	C528.808289,780.798767 530.597412,778.623718 531.393799,777.043152 
	C532.067566,775.705933 531.595459,773.779663 531.590393,772.114136 
	C531.568970,765.112732 531.439636,764.991455 524.261963,764.990906 
	C513.332825,764.990051 502.403717,764.990662 491.423309,764.990662 
	C491.423309,757.982117 491.423309,751.558289 491.423309,744.747620 
	C496.586853,744.747620 501.544525,744.747620 507.500366,744.746521 
M634.500000,890.000854 
	C641.992249,889.998413 649.485046,889.933899 656.976562,890.008118 
	C668.291321,890.120178 666.847290,889.861572 667.070923,879.995361 
	C667.173828,875.458801 665.584473,873.825623 660.991821,873.920044 
	C649.224304,874.162109 637.448608,874.000854 625.585083,874.000854 
	C625.585083,867.156555 625.585083,860.763062 625.585083,854.055054 
	C636.316040,854.055054 646.785156,853.819397 657.235352,854.160828 
	C662.005127,854.316711 663.658142,852.635498 663.015930,848.130432 
	C662.899658,847.314575 662.999512,846.467896 662.998962,845.635437 
	C662.994690,838.840820 662.994690,838.833313 656.037292,838.828491 
	C645.945801,838.821472 635.854248,838.826599 625.743103,838.826599 
	C625.743103,832.276062 625.743103,826.229126 625.743103,819.996460 
	C635.718079,819.996460 645.370911,820.126892 655.018860,819.963745 
	C667.296143,819.756104 666.078918,822.421326 666.135132,808.334961 
	C666.147888,805.141418 665.017639,803.917542 661.756958,803.936340 
	C644.608948,804.035278 627.459656,804.023926 610.311646,803.923218 
	C607.411133,803.906189 606.017700,804.732239 606.023621,807.821777 
	C606.073120,833.794373 606.075256,859.767212 606.022766,885.739807 
	C606.016296,888.958862 607.304810,890.122742 610.525269,890.053406 
	C618.180359,889.888550 625.841370,890.000671 634.500000,890.000854 
M354.772888,849.173889 
	C350.271210,860.977417 345.773621,872.782410 341.265198,884.583313 
	C340.026642,887.825256 340.709290,889.408936 344.583191,889.656189 
	C358.668549,890.555298 358.660797,890.655579 363.258087,877.222839 
	C363.471619,876.598877 363.583740,875.813416 364.025238,875.419373 
	C365.096130,874.463501 366.320221,872.983459 367.505951,872.961243 
	C377.803802,872.767944 388.106781,872.849792 398.441711,872.849792 
	C400.044159,877.253784 401.380920,881.468445 403.145782,885.495483 
	C403.797455,886.982544 405.376373,888.994873 406.671814,889.103394 
	C411.692230,889.524048 416.768799,889.274536 422.916931,889.274536 
	C420.332550,881.909973 418.194946,875.762756 416.019226,869.628967 
	C408.990601,849.813721 401.868317,830.031006 394.971680,810.169983 
	C393.418457,805.697083 391.265533,803.177795 386.094452,803.900330 
	C382.828339,804.356567 379.425415,804.228210 376.123077,803.928833 
	C372.138794,803.567688 370.183167,805.126343 368.901917,808.925476 
	C364.442719,822.148071 359.654388,835.259705 354.772888,849.173889 
M684.053589,483.522614 
	C693.428589,464.902893 690.901428,445.475708 677.403198,433.226532 
	C676.816833,434.385956 676.325928,435.555664 675.669861,436.623932 
	C665.829041,452.648132 653.508911,466.232849 635.589294,473.058136 
	C629.061951,475.544250 625.738708,478.747742 624.096497,485.522339 
	C621.449524,496.442047 616.129639,506.251801 607.691589,514.322083 
	C638.031860,523.744202 668.568115,511.524811 684.053589,483.522614 
M643.072510,686.529968 
	C649.333130,682.857361 655.531372,679.071716 661.883301,675.564392 
	C664.654480,674.034241 665.859741,672.290039 665.758667,668.941650 
	C665.482666,659.800293 665.836731,650.639343 665.534912,641.499573 
	C665.474060,639.656189 664.073792,637.160583 662.523071,636.179382 
	C654.428162,631.057251 646.132385,626.242981 637.776123,621.554077 
	C636.570435,620.877502 634.333008,620.876587 633.126465,621.551819 
	C624.771240,626.227905 616.639282,631.304443 608.262024,635.938660 
	C605.624939,637.397522 604.973206,639.166504 605.004944,641.895325 
	C605.113281,651.210388 604.886475,660.532837 605.191772,669.839172 
	C605.252441,671.689148 606.653503,674.161377 608.203186,675.179626 
	C614.551697,679.350952 621.463196,682.694214 627.651794,687.071289 
	C632.956055,690.822937 637.561157,691.402405 643.072510,686.529968 
M601.119873,719.676331 
	C604.785400,712.678345 608.378479,705.640991 612.151123,698.701233 
	C613.720825,695.813843 612.807617,694.671448 609.841736,694.608276 
	C606.178345,694.530334 602.506592,694.686829 598.849915,694.507629 
	C595.444702,694.340759 593.441895,695.683716 591.910583,698.805908 
	C586.875732,709.070984 581.553772,719.195190 576.084900,729.875854 
	C570.477600,719.067200 565.266846,708.854309 559.847351,698.753418 
	C559.007324,697.187805 557.296875,695.148804 555.842163,695.022766 
	C550.622314,694.570496 545.339417,694.845337 539.301392,694.845337 
	C540.189026,697.426819 540.591370,699.335205 541.459229,701.001099 
	C547.018921,711.673523 552.130249,722.634338 558.459656,732.835999 
	C565.162048,743.638794 568.011658,754.752625 567.188293,767.480652 
	C566.330750,780.736572 566.993103,780.615540 580.326782,780.387878 
	C584.567261,780.315491 585.828491,778.576416 585.790649,774.742493 
	C585.715027,767.080322 585.750854,759.415222 585.888550,751.754028 
	C585.919983,750.004272 586.179932,748.071899 586.969116,746.553223 
	C591.526428,737.784180 596.273987,729.114075 601.119873,719.676331 
M654.981628,318.324921 
	C654.981628,313.255646 654.981628,308.186401 654.981628,303.117126 
	C654.551697,302.798706 654.121826,302.480286 653.691895,302.161865 
	C643.873352,310.177307 633.999512,318.127380 624.325989,326.314301 
	C623.408752,327.090576 623.377991,329.398651 623.571350,330.914490 
	C624.215210,335.963226 625.877625,340.984985 625.809082,345.998718 
	C625.691467,354.596893 620.371887,361.169769 613.511292,362.748596 
	C608.255432,363.958069 602.497437,360.532684 598.791382,354.020782 
	C598.682556,353.829590 598.329407,353.777405 597.826660,353.531555 
	C594.309021,357.524933 590.742188,361.574158 587.016907,365.803314 
	C597.925049,373.417084 609.260010,378.574310 622.837402,375.050934 
	C635.451294,371.777496 643.748657,363.229095 647.728271,351.472748 
	C651.235474,341.112122 652.626404,330.035126 654.981628,318.324921 
z"/>
<path fill="#FEFA22" opacity="1.000000" stroke="none" 
	d="
M713.128967,765.856445 
	C707.398132,762.469604 701.901428,759.387329 696.674744,755.900391 
	C695.343628,755.012268 694.129333,752.846924 694.114380,751.256653 
	C693.938782,732.594421 693.936890,713.929260 694.124451,695.267273 
	C694.139709,693.745361 695.523376,691.678589 696.876770,690.822205 
	C704.004272,686.312805 711.338928,682.132141 718.578369,677.798340 
	C748.410767,659.939270 749.611816,621.512329 720.723572,602.052063 
	C711.129944,595.589417 700.799683,590.231445 691.002380,584.057190 
	C678.184143,575.979126 670.223267,564.794800 670.027039,549.069275 
	C669.966003,544.180176 671.701294,540.725525 676.000183,537.520508 
	C691.635193,525.864136 702.274841,510.031097 711.027588,492.862915 
	C718.686462,477.840302 724.027954,462.201843 724.055176,445.032593 
	C724.092529,421.487061 713.657471,404.104156 693.688782,392.136444 
	C690.894897,390.461945 687.984497,388.981873 684.641052,387.144165 
	C699.372559,378.560791 713.735535,370.198090 728.091980,361.824097 
	C733.525208,358.654907 738.847778,355.274628 744.430176,352.396606 
	C745.967773,351.603882 748.693054,351.533813 750.142334,352.381653 
	C786.567993,373.690857 822.917969,395.130249 859.160278,416.749603 
	C860.607910,417.613159 861.573792,420.461273 861.580811,422.389099 
	C861.726257,462.049103 861.540894,501.711029 861.876770,541.368713 
	C861.927429,547.357483 860.003662,550.361572 854.963074,553.284424 
	C828.349365,568.716736 801.799438,584.276062 775.576904,600.361084 
	C752.035767,614.801331 745.965088,643.577393 762.131042,664.842346 
	C766.797119,670.980103 773.812805,675.488831 780.213013,680.104065 
	C785.833435,684.157043 792.200012,687.161438 798.010559,690.974182 
	C799.456543,691.922974 800.855530,694.195557 800.874146,695.875183 
	C801.077148,714.203552 801.075806,732.535767 800.878113,750.864258 
	C800.859863,752.560547 799.538635,754.945190 798.099670,755.816162 
	C782.105347,765.497070 765.998779,774.994873 749.813049,784.352783 
	C748.502625,785.110474 746.013855,785.126709 744.702393,784.380676 
	C734.203674,778.408020 723.856750,772.168518 713.128967,765.856445 
z"/>
<path fill="#FEFA22" opacity="1.000000" stroke="none" 
	d="
M600.144165,223.042206 
	C606.668396,256.010162 599.937927,285.608398 580.150330,312.229523 
	C577.179810,316.225952 573.948608,320.028625 571.020142,323.692963 
	C543.268311,302.260559 515.729675,280.992828 488.191010,259.725098 
	C487.696899,259.974670 487.202789,260.224274 486.708679,260.473877 
	C487.391663,263.473206 487.796967,266.569550 488.804901,269.455383 
	C493.581207,283.131134 498.524597,296.748474 503.397003,310.390717 
	C503.654938,311.113037 503.808228,311.872681 503.681702,311.407776 
	C487.867249,298.755157 471.913300,284.882904 454.837585,272.565887 
	C421.946259,248.840820 385.307648,233.437775 345.110229,227.189850 
	C322.535828,223.681076 299.924530,224.049164 275.894714,228.705109 
	C299.507324,236.242416 322.370422,242.322403 340.009430,259.465057 
	C327.438751,260.294586 315.143799,260.419739 303.058655,262.075897 
	C287.714600,264.178680 272.504578,267.348053 257.323792,270.479431 
	C254.249084,271.113647 252.979660,270.868317 251.597794,268.058990 
	C243.570389,251.739212 230.760284,240.959320 211.591537,235.276840 
	C226.464859,221.310913 240.186966,207.507690 254.881165,194.831284 
	C280.532013,172.702805 309.274323,155.404831 341.383179,144.335526 
	C373.573334,133.238159 406.733917,129.255234 440.814423,131.804276 
	C496.271362,135.952148 547.197021,152.955154 593.166199,184.277969 
	C611.390198,196.695557 627.983521,211.065659 640.752686,229.307083 
	C643.750488,233.589554 646.014038,238.385986 649.252319,244.062592 
	C632.142761,234.683319 616.279602,225.987320 599.346375,216.704727 
	C599.706238,219.664261 599.887085,221.151535 600.144165,223.042206 
z"/>
<path fill="#FEFA22" opacity="1.000000" stroke="none" 
	d="
M364.714172,486.770081 
	C358.751160,502.259949 353.019165,517.458069 346.875946,533.746582 
	C358.112091,538.485229 368.399536,543.229980 378.978088,547.198914 
	C399.822479,555.019531 421.492096,558.720215 443.740967,557.684326 
	C464.668793,556.709839 485.049469,552.095032 505.210144,546.627258 
	C525.163025,541.215820 545.130005,535.778259 565.841492,534.340454 
	C586.010254,532.940308 605.508850,535.223389 623.115479,546.535583 
	C626.368286,548.625549 626.351196,550.245117 624.738098,553.218750 
	C612.908997,575.024414 594.484192,589.554443 572.539062,599.848999 
	C548.311646,611.214111 522.393860,614.782166 495.979309,613.041199 
	C477.670380,611.834595 459.502502,608.559509 441.251770,606.374023 
	C427.906891,604.776001 414.469696,603.857178 401.179718,601.911255 
	C375.113129,598.094543 349.559570,592.342712 326.391418,578.965881 
	C298.733978,562.997070 287.937103,539.571411 297.341949,509.314667 
	C313.384094,457.704956 347.545319,422.730560 399.537842,406.980865 
	C426.224396,398.896881 457.138580,403.727295 481.781738,423.114899 
	C490.224976,411.620148 501.134552,402.815430 513.137573,395.305634 
	C532.464722,383.213470 553.550293,377.426208 576.353577,378.007355 
	C577.465759,378.035645 578.791870,378.156952 579.640930,378.763397 
	C596.076965,390.502319 615.416443,395.397156 634.044617,401.967682 
	C635.237732,402.388519 636.412476,402.861481 637.433289,403.955566 
	C630.283936,403.149689 623.148254,402.183502 615.982422,401.569672 
	C598.399170,400.063446 580.797058,399.117188 563.540527,404.066223 
	C554.900391,406.544128 547.001343,410.531006 546.270447,420.808350 
	C545.731873,428.381561 549.516052,434.906036 554.192078,440.668854 
	C569.002502,458.921478 588.379089,470.061584 610.673401,476.617035 
	C609.094849,495.829956 595.747681,511.888641 578.153870,514.610596 
	C567.152466,516.312622 556.390015,513.705933 545.909119,510.303772 
	C523.953003,503.176636 505.098022,490.911926 488.022034,475.584290 
	C478.743988,467.256165 469.617035,458.625336 459.546173,451.341919 
	C436.420807,434.617279 413.040131,435.808563 391.435699,454.300964 
	C380.771851,463.428802 371.750793,474.086121 364.714172,486.770081 
z"/>
<path fill="#FDFA22" opacity="1.000000" stroke="none" 
	d="
M118.038452,408.096252 
	C123.668816,392.373108 129.249939,377.047119 134.792297,361.827545 
	C143.832932,368.794739 152.530121,375.497253 161.426651,382.353394 
	C153.100540,400.323364 144.010452,418.971405 135.775299,437.989655 
	C127.593689,456.884308 119.834084,476.021179 117.568008,498.194977 
	C130.365570,484.266876 143.795258,473.206207 159.898804,464.965851 
	C156.012039,474.333099 152.025925,483.269379 148.565796,492.404846 
	C138.302368,519.502319 131.093307,547.382996 126.856491,576.087891 
	C123.059662,601.811829 121.435585,627.653687 120.889565,653.608459 
	C120.726143,661.376465 120.146584,669.135620 119.719963,677.651917 
	C108.818779,659.903259 100.655891,641.697937 94.990623,622.344604 
	C88.202545,599.155518 88.240440,575.527527 89.766388,551.693909 
	C91.592308,523.175171 95.853928,495.010162 102.163979,467.215118 
	C106.648422,447.461700 112.659492,428.054901 118.038452,408.096252 
z"/>
<path fill="#FEFB22" opacity="1.000000" stroke="none" 
	d="
M810.901733,162.107483 
	C821.358032,168.213455 831.450378,174.221024 841.616760,180.100388 
	C843.952881,181.451416 845.132141,182.875305 845.093445,185.864120 
	C844.897278,201.010376 845.107544,216.162216 844.868286,231.307236 
	C844.839294,233.142029 843.416016,235.700272 841.861450,236.648621 
	C828.452698,244.828537 814.916992,252.806702 801.260925,260.566650 
	C799.686401,261.461365 796.705994,261.423309 795.121277,260.517029 
	C781.344604,252.638611 767.773743,244.401108 754.045837,236.435638 
	C751.714539,235.082932 750.909912,233.617737 750.933655,230.948547 
	C751.068298,215.800934 750.927307,200.650650 751.108093,185.503998 
	C751.127136,183.908386 752.214111,181.637894 753.514160,180.850967 
	C767.375061,172.460571 781.341248,164.240570 795.404175,156.193436 
	C796.759033,155.418167 799.218262,155.558945 800.714600,156.249725 
	C804.145813,157.833679 807.298706,160.020462 810.901733,162.107483 
z"/>
<path fill="#FCFDFC" opacity="1.000000" stroke="none" 
	d="
M454.757874,523.478638 
	C467.697235,527.571289 479.630676,525.948792 492.305878,518.672668 
	C484.476807,517.668213 478.027435,516.840942 471.578125,516.013306 
	C469.276855,515.717957 466.908539,514.922058 464.687256,515.220764 
	C458.266693,516.084045 456.094543,512.614990 454.023376,507.203339 
	C450.211639,497.243927 445.383392,487.673523 440.627930,477.165680 
	C431.061920,488.244476 422.134247,498.583984 412.151337,510.145599 
	C409.258850,496.916321 406.521912,484.976929 404.187927,472.959290 
	C403.909912,471.527710 405.402039,468.934875 406.796967,468.122894 
	C420.103302,460.377258 433.825134,459.685699 447.178406,467.645020 
	C459.090332,474.745239 470.632782,482.480804 482.179504,490.174316 
	C497.299347,500.248566 512.263062,510.557007 527.362244,520.811157 
	C511.158722,527.351074 494.337799,533.652527 476.641632,536.847351 
	C464.928345,538.962036 452.982147,540.501770 441.101562,540.810364 
	C422.401123,541.296082 404.333191,537.226685 387.057373,529.965942 
	C374.523804,524.698242 371.115265,515.726318 376.726196,503.131531 
	C380.219116,495.291046 387.887085,486.221619 396.800720,479.439209 
	C397.971527,495.691071 399.213623,511.866577 411.250824,525.165405 
	C422.910248,516.666382 429.813385,504.593750 437.984222,492.276520 
	C443.635956,502.872192 449.056152,513.033813 454.757874,523.478638 
z"/>
<path fill="#FDFA22" opacity="1.000000" stroke="none" 
	d="
M238.290497,304.705811 
	C226.078690,292.786285 212.582916,283.486115 195.889359,280.505951 
	C180.817688,277.815369 166.564560,281.700562 163.659592,297.815582 
	C162.469940,304.414978 163.185486,311.828735 164.887573,318.391357 
	C170.291153,339.225494 183.719376,354.976685 199.242050,369.122009 
	C203.486725,372.990051 207.999771,376.563568 212.881653,380.687897 
	C191.855316,378.744385 173.825363,371.697113 158.685852,357.661896 
	C139.577362,339.947266 132.006729,310.872009 140.500336,286.981689 
	C151.607254,255.740707 185.141846,241.843521 217.139832,255.333298 
	C238.173355,264.200653 250.130447,280.788330 255.889389,302.227722 
	C258.197723,310.821259 259.605103,319.656830 261.724335,329.831085 
	C253.289169,320.778595 245.916443,312.866333 238.290497,304.705811 
z"/>
<path fill="#FBFBFB" opacity="1.000000" stroke="none" 
	d="
M323.635071,884.787354 
	C316.832855,886.657471 310.405518,889.279968 303.823212,889.754883 
	C292.730652,890.555237 281.537903,889.879272 270.391266,890.064575 
	C266.371887,890.131348 265.115723,888.299927 265.124664,884.661987 
	C265.186096,859.700439 265.207062,834.738770 265.210938,809.777100 
	C265.211548,805.839172 266.369598,803.758911 271.010193,803.872009 
	C283.649933,804.179688 296.306274,803.778442 308.947845,804.045776 
	C326.579987,804.418640 337.251251,820.528137 330.555450,836.835388 
	C329.155823,840.244202 325.972931,842.920898 323.594025,845.957581 
	C330.466339,849.274353 333.066956,855.895813 333.116882,864.260193 
	C333.166565,872.582397 330.806030,879.519592 323.635071,884.787354 
M301.226715,853.004761 
	C295.805664,853.004761 290.384613,853.004761 285.105713,853.004761 
	C285.105713,860.425720 285.105713,867.196289 285.105713,874.093811 
	C291.564484,874.093811 297.838409,874.142761 304.111115,874.076416 
	C308.218567,874.033020 311.166382,871.931580 312.271240,868.064880 
	C314.414001,860.565979 313.198029,852.960022 301.226715,853.004761 
M310.787109,834.961304 
	C314.892395,825.714355 311.375214,819.795471 301.446075,819.486450 
	C296.005127,819.317078 290.554596,819.456238 285.062439,819.456238 
	C285.062439,826.067078 285.062439,832.183960 285.062439,838.536377 
	C291.009827,838.536377 296.809601,838.835693 302.554077,838.402100 
	C305.176300,838.204224 307.689423,836.560791 310.787109,834.961304 
z"/>
<path fill="#FDFA22" opacity="1.000000" stroke="none" 
	d="
M857.575928,351.390961 
	C848.630249,348.273865 845.961731,342.377777 846.804626,333.390625 
	C847.670837,324.154938 846.996826,314.774841 846.996826,305.470337 
	C857.944458,299.012726 868.699341,292.541718 879.626038,286.375061 
	C881.087280,285.550385 883.815308,285.557068 885.280457,286.381195 
	C895.079102,291.892639 904.782471,297.590759 914.286194,303.593262 
	C915.954773,304.647064 917.414856,307.394897 917.474243,309.404572 
	C917.788452,320.048889 917.792542,330.712311 917.475403,341.356354 
	C917.416565,343.332184 915.878235,346.016510 914.203064,347.067444 
	C904.555176,353.120392 894.709961,358.867432 884.790649,364.468567 
	C883.483704,365.206512 881.031616,365.132935 879.689209,364.389404 
	C872.318970,360.306946 865.129150,355.898773 857.575928,351.390961 
z"/>
<path fill="#FDFDFD" opacity="1.000000" stroke="none" 
	d="
M427.965942,344.046753 
	C428.159210,356.239075 436.083038,365.622528 447.684753,367.849731 
	C459.616119,370.140198 469.289185,364.201752 475.361664,350.479706 
	C486.707245,356.118469 498.034027,361.747925 510.338684,367.863342 
	C482.438843,384.527740 453.664734,391.627960 423.333557,379.568970 
	C389.116791,365.965118 374.533020,337.146332 368.377228,301.436676 
	C389.987640,311.640656 410.678131,321.410248 430.899292,330.958252 
	C429.897186,335.284454 428.933990,339.442688 427.965942,344.046753 
z"/>
<path fill="#FBFBFB" opacity="1.000000" stroke="none" 
	d="
M408.986450,741.032471 
	C406.523651,737.524902 404.192383,734.352722 401.928284,731.271851 
	C401.928284,745.260254 401.929749,759.091248 401.927734,772.922302 
	C401.926666,780.064758 401.915588,780.083557 394.599976,780.145325 
	C391.281342,780.173401 387.962311,780.150146 384.180969,780.150146 
	C384.180969,751.839355 384.180969,723.798584 384.180969,695.728455 
	C393.594269,692.909973 397.736359,694.396423 403.017059,702.390198 
	C412.038422,716.046387 421.100555,729.675537 430.162384,743.304871 
	C430.769562,744.218079 431.518585,745.036926 432.149353,745.833618 
	C432.149353,730.761169 432.286438,715.879578 432.068390,701.003174 
	C432.000183,696.350037 433.342163,694.567261 438.259766,694.605957 
	C450.807678,694.704895 450.823273,694.488708 450.825439,706.860535 
	C450.829376,729.180969 450.675201,751.502808 450.913696,773.820679 
	C450.968201,778.920410 449.218323,780.101013 444.347321,780.471252 
	C437.729156,780.974365 433.867584,778.791809 430.405548,773.103027 
	C423.790009,762.232300 416.265289,751.914856 408.986450,741.032471 
z"/>
<path fill="#F9F9F9" opacity="1.000000" stroke="none" 
	d="
M257.178467,748.959839 
	C257.106384,747.153931 257.035217,745.855530 256.958923,744.463196 
	C246.558273,744.463196 236.418732,744.463196 225.803482,744.463196 
	C225.803482,754.426636 225.599808,764.395630 225.894257,774.349854 
	C226.029953,778.937439 224.553513,780.366455 219.941422,780.360474 
	C206.215729,780.342712 206.219894,780.530884 206.227798,766.751282 
	C206.240326,744.921509 206.356964,723.090820 206.170685,701.262695 
	C206.128510,696.321533 207.547836,694.643982 212.720459,694.796570 
	C226.006561,695.188599 226.002197,694.931335 226.008621,708.364990 
	C226.011642,714.690979 226.068924,721.016968 226.118576,727.342834 
	C226.119553,727.466492 226.330002,727.588379 226.591400,727.872986 
	C236.394699,727.872986 246.349350,727.872986 256.989105,727.872986 
	C256.989105,719.227051 256.987274,710.473755 256.989685,701.720398 
	C256.991577,694.839600 256.993896,694.839539 263.751892,694.880188 
	C276.714264,694.958008 276.713898,694.958069 276.711334,707.869263 
	C276.706970,729.865601 276.606964,751.862671 276.777588,773.857666 
	C276.813080,778.435425 275.698822,780.747437 270.669159,780.162354 
	C267.709106,779.818115 264.659332,779.879700 261.682617,780.137085 
	C258.026489,780.453247 257.093170,778.764587 257.140656,775.462646 
	C257.265320,766.799133 257.180695,758.132629 257.178467,748.959839 
z"/>
<path fill="#FAFAFA" opacity="1.000000" stroke="none" 
	d="
M497.327881,875.176270 
	C491.485382,884.435730 482.539398,887.984802 472.800507,888.824158 
	C461.379211,889.808411 449.841217,889.387817 438.358734,889.737793 
	C433.823364,889.876038 433.245789,887.251648 433.254486,883.664856 
	C433.302979,863.669617 433.276062,843.674255 433.272736,823.678894 
	C433.271942,818.846680 433.321045,814.013489 433.238770,809.182556 
	C433.176300,805.516663 434.445862,803.743835 438.517212,803.914856 
	C450.639343,804.424072 462.846466,803.913391 474.886322,805.128967 
	C490.628418,806.718384 500.822937,817.473694 501.754028,833.336548 
	C502.374603,843.908691 501.567566,854.595032 500.875153,865.195984 
	C500.660034,868.489319 498.726624,871.670349 497.327881,875.176270 
M483.362244,847.496094 
	C483.238953,843.335327 483.255615,839.164734 482.962921,835.015930 
	C482.374298,826.672913 479.158264,821.924805 471.872742,820.672668 
	C465.467957,819.571960 458.831604,819.818298 452.072845,819.457764 
	C452.072845,829.243713 452.072845,838.050781 452.072845,846.857788 
	C452.072845,855.793518 452.072845,864.729309 452.072845,873.944397 
	C457.700134,873.944397 462.854553,874.253479 467.957886,873.874573 
	C476.359375,873.250854 480.458466,869.695129 482.194611,861.347229 
	C483.064270,857.165588 482.945435,852.778381 483.362244,847.496094 
z"/>
<path fill="#FCFDFD" opacity="1.000000" stroke="none" 
	d="
M682.956238,870.998718 
	C682.958618,850.177429 683.070923,829.854736 682.875366,809.534912 
	C682.833374,805.169128 684.105835,803.774536 688.536560,803.897095 
	C699.521912,804.200989 710.535583,803.636597 721.512024,804.072327 
	C746.539001,805.065796 752.952087,825.983337 747.167236,841.626892 
	C744.697998,848.304016 739.775757,852.300964 733.098755,854.699524 
	C738.699097,864.287354 744.151978,873.672913 749.657227,883.027588 
	C752.655579,888.122620 752.083008,888.585815 746.163513,889.509827 
	C736.674316,890.991028 730.469849,888.136536 726.977661,878.731567 
	C724.758118,872.754150 720.872192,867.416443 718.192505,861.581055 
	C716.650513,858.223083 714.748596,856.794739 711.037292,857.263733 
	C708.267151,857.613708 705.417175,857.332703 701.948181,857.332703 
	C701.948181,865.868713 701.961060,874.270752 701.944092,882.672791 
	C701.930786,889.271973 701.822449,889.364075 695.262695,889.376526 
	C682.969666,889.399902 682.969482,889.399963 682.956970,876.995239 
	C682.955078,875.162903 682.956299,873.330627 682.956238,870.998718 
M711.485962,842.219360 
	C714.802429,842.146057 718.143555,842.301941 721.430054,841.949341 
	C727.348450,841.314331 730.249023,836.982300 729.998779,829.643860 
	C729.797241,823.733459 726.691040,820.121033 721.050354,819.905396 
	C714.808533,819.666809 708.550659,819.850891 702.244263,819.850891 
	C702.244263,827.454468 702.244263,834.813171 702.244263,842.219116 
	C705.194275,842.219116 707.845825,842.219116 711.485962,842.219360 
z"/>
<path fill="#FDFDFD" opacity="1.000000" stroke="none" 
	d="
M351.760620,775.873352 
	C337.978882,784.057556 324.024139,784.063721 310.182373,777.666016 
	C301.159393,773.495605 295.818176,765.662048 295.130005,755.799805 
	C294.346954,744.576965 293.896027,733.190796 294.884460,722.015686 
	C296.599243,702.628662 309.889923,694.115967 328.562378,693.513123 
	C347.957367,692.886902 362.442383,703.104675 364.629181,720.367859 
	C366.055023,731.624023 365.495972,743.252563 364.669586,754.630249 
	C364.126923,762.102417 360.501892,768.878662 354.492249,773.930786 
	C353.731903,774.569946 352.889496,775.111511 351.760620,775.873352 
M319.617096,763.045044 
	C332.146118,769.934448 342.876038,765.303894 345.380737,751.316589 
	C346.480682,745.174011 346.173248,738.718140 345.963287,732.422607 
	C345.811005,727.855713 345.338135,723.141418 343.991394,718.808899 
	C341.878235,712.010803 336.629974,708.895081 329.516693,709.114807 
	C322.109680,709.343567 316.825378,713.321960 315.014160,720.355957 
	C312.187103,731.335083 312.727966,742.480530 314.364532,753.510437 
	C314.836609,756.692322 317.415924,759.561584 319.617096,763.045044 
z"/>
<path fill="#FCFCFC" opacity="1.000000" stroke="none" 
	d="
M578.528320,883.616699 
	C562.064392,895.190247 537.589905,893.182495 524.989929,879.594910 
	C520.019531,874.234985 517.494690,867.673218 517.286926,860.750671 
	C516.958557,849.814270 516.758118,838.690918 518.361328,827.923279 
	C520.660095,812.483521 533.963135,803.219482 552.316711,802.790649 
	C565.118469,802.491577 576.841553,805.400635 584.289124,816.935242 
	C586.779968,820.792908 587.811707,825.592651 590.095154,831.465759 
	C582.570557,831.465759 576.531860,831.570679 570.507141,831.328796 
	C569.780640,831.299622 568.918884,829.476624 568.477173,828.345459 
	C565.410583,820.493774 561.700928,817.925171 553.549805,818.177063 
	C544.652039,818.452026 538.123474,821.871704 537.427673,829.219421 
	C536.311523,841.007568 536.411072,853.017029 537.258850,864.842468 
	C537.718689,871.256958 543.524109,875.117188 550.105347,874.876831 
	C554.765686,874.706604 560.069580,874.515015 563.861877,872.267334 
	C569.872742,868.704651 569.396790,861.618958 569.999634,854.743652 
	C566.552490,854.743652 563.417725,854.541931 560.319458,854.792297 
	C555.987854,855.142456 554.129517,853.342285 554.471558,849.063904 
	C554.654358,846.777405 554.741516,844.483337 554.892944,841.821411 
	C565.396973,841.821411 575.530579,841.731140 585.657776,841.944946 
	C586.816711,841.969360 588.894897,843.656494 588.933044,844.635498 
	C589.357239,855.524597 590.541931,866.618835 584.569824,876.587830 
	C583.063416,879.102417 580.752319,881.134949 578.528320,883.616699 
z"/>
<path fill="#FAFAFA" opacity="1.000000" stroke="none" 
	d="
M507.001282,744.747070 
	C501.544525,744.747620 496.586853,744.747620 491.423309,744.747620 
	C491.423309,751.558289 491.423309,757.982117 491.423309,764.990662 
	C502.403717,764.990662 513.332825,764.990051 524.261963,764.990906 
	C531.439636,764.991455 531.568970,765.112732 531.590393,772.114136 
	C531.595459,773.779663 532.067566,775.705933 531.393799,777.043152 
	C530.597412,778.623718 528.808289,780.798767 527.420471,780.820068 
	C510.263458,781.083313 493.100586,781.054260 475.941345,780.885620 
	C474.798462,780.874329 473.253754,779.333740 472.655518,778.127686 
	C472.045013,776.896973 472.300720,775.201233 472.299408,773.708984 
	C472.278503,749.716919 472.273438,725.724915 472.273621,701.732849 
	C472.273682,694.720337 472.357697,694.619568 479.095398,694.615295 
	C494.589813,694.605530 510.085480,694.735535 525.577820,694.558716 
	C529.906433,694.509338 531.313477,695.895447 531.168945,700.307800 
	C530.804993,711.420471 532.427368,710.761536 520.577454,710.794128 
	C510.940338,710.820679 501.303070,710.799500 491.433044,710.799500 
	C491.433044,716.877075 491.433044,722.637451 491.433044,729.082581 
	C498.264130,729.082581 505.178986,729.082214 512.093872,729.082764 
	C515.925903,729.083008 519.807007,728.730896 523.566956,729.252136 
	C525.172424,729.474609 527.406921,731.290222 527.798523,732.788757 
	C528.491333,735.440063 528.575378,738.582642 527.775574,741.167358 
	C527.293823,742.724426 524.736877,744.489258 522.980774,744.641479 
	C517.856079,745.085754 512.665283,744.766418 507.001282,744.747070 
z"/>
<path fill="#FEFEFE" opacity="1.000000" stroke="none" 
	d="
M634.000000,890.000854 
	C625.841370,890.000671 618.180359,889.888550 610.525269,890.053406 
	C607.304810,890.122742 606.016296,888.958862 606.022766,885.739807 
	C606.075256,859.767212 606.073120,833.794373 606.023621,807.821777 
	C606.017700,804.732239 607.411133,803.906189 610.311646,803.923218 
	C627.459656,804.023926 644.608948,804.035278 661.756958,803.936340 
	C665.017639,803.917542 666.147888,805.141418 666.135132,808.334961 
	C666.078918,822.421326 667.296143,819.756104 655.018860,819.963745 
	C645.370911,820.126892 635.718079,819.996460 625.743103,819.996460 
	C625.743103,826.229126 625.743103,832.276062 625.743103,838.826599 
	C635.854248,838.826599 645.945801,838.821472 656.037292,838.828491 
	C662.994690,838.833313 662.994690,838.840820 662.998962,845.635437 
	C662.999512,846.467896 662.899658,847.314575 663.015930,848.130432 
	C663.658142,852.635498 662.005127,854.316711 657.235352,854.160828 
	C646.785156,853.819397 636.316040,854.055054 625.585083,854.055054 
	C625.585083,860.763062 625.585083,867.156555 625.585083,874.000854 
	C637.448608,874.000854 649.224304,874.162109 660.991821,873.920044 
	C665.584473,873.825623 667.173828,875.458801 667.070923,879.995361 
	C666.847290,889.861572 668.291321,890.120178 656.976562,890.008118 
	C649.485046,889.933899 641.992249,889.998413 634.000000,890.000854 
z"/>
<path fill="#FBFBFB" opacity="1.000000" stroke="none" 
	d="
M354.882019,848.793701 
	C359.654388,835.259705 364.442719,822.148071 368.901917,808.925476 
	C370.183167,805.126343 372.138794,803.567688 376.123077,803.928833 
	C379.425415,804.228210 382.828339,804.356567 386.094452,803.900330 
	C391.265533,803.177795 393.418457,805.697083 394.971680,810.169983 
	C401.868317,830.031006 408.990601,849.813721 416.019226,869.628967 
	C418.194946,875.762756 420.332550,881.909973 422.916931,889.274536 
	C416.768799,889.274536 411.692230,889.524048 406.671814,889.103394 
	C405.376373,888.994873 403.797455,886.982544 403.145782,885.495483 
	C401.380920,881.468445 400.044159,877.253784 398.441711,872.849792 
	C388.106781,872.849792 377.803802,872.767944 367.505951,872.961243 
	C366.320221,872.983459 365.096130,874.463501 364.025238,875.419373 
	C363.583740,875.813416 363.471619,876.598877 363.258087,877.222839 
	C358.660797,890.655579 358.668549,890.555298 344.583191,889.656189 
	C340.709290,889.408936 340.026642,887.825256 341.265198,884.583313 
	C345.773621,872.782410 350.271210,860.977417 354.882019,848.793701 
M385.275269,834.214417 
	C384.186676,830.843811 383.098083,827.473206 381.813385,823.495422 
	C378.005920,835.069031 374.457336,845.855774 370.828094,856.887634 
	C378.451965,856.887634 385.573914,856.887634 392.963684,856.887634 
	C390.502869,849.442993 388.098297,842.168518 385.275269,834.214417 
z"/>
<path fill="#FDFA22" opacity="1.000000" stroke="none" 
	d="
M683.961609,483.887421 
	C668.568115,511.524811 638.031860,523.744202 607.691589,514.322083 
	C616.129639,506.251801 621.449524,496.442047 624.096497,485.522339 
	C625.738708,478.747742 629.061951,475.544250 635.589294,473.058136 
	C653.508911,466.232849 665.829041,452.648132 675.669861,436.623932 
	C676.325928,435.555664 676.816833,434.385956 677.403198,433.226532 
	C690.901428,445.475708 693.428589,464.902893 683.961609,483.887421 
z"/>
<path fill="#FDF922" opacity="1.000000" stroke="none" 
	d="
M642.776489,686.749084 
	C637.561157,691.402405 632.956055,690.822937 627.651794,687.071289 
	C621.463196,682.694214 614.551697,679.350952 608.203186,675.179626 
	C606.653503,674.161377 605.252441,671.689148 605.191772,669.839172 
	C604.886475,660.532837 605.113281,651.210388 605.004944,641.895325 
	C604.973206,639.166504 605.624939,637.397522 608.262024,635.938660 
	C616.639282,631.304443 624.771240,626.227905 633.126465,621.551819 
	C634.333008,620.876587 636.570435,620.877502 637.776123,621.554077 
	C646.132385,626.242981 654.428162,631.057251 662.523071,636.179382 
	C664.073792,637.160583 665.474060,639.656189 665.534912,641.499573 
	C665.836731,650.639343 665.482666,659.800293 665.758667,668.941650 
	C665.859741,672.290039 664.654480,674.034241 661.883301,675.564392 
	C655.531372,679.071716 649.333130,682.857361 642.776489,686.749084 
z"/>
<path fill="#FCFCFC" opacity="1.000000" stroke="none" 
	d="
M601.038452,720.043335 
	C596.273987,729.114075 591.526428,737.784180 586.969116,746.553223 
	C586.179932,748.071899 585.919983,750.004272 585.888550,751.754028 
	C585.750854,759.415222 585.715027,767.080322 585.790649,774.742493 
	C585.828491,778.576416 584.567261,780.315491 580.326782,780.387878 
	C566.993103,780.615540 566.330750,780.736572 567.188293,767.480652 
	C568.011658,754.752625 565.162048,743.638794 558.459656,732.835999 
	C552.130249,722.634338 547.018921,711.673523 541.459229,701.001099 
	C540.591370,699.335205 540.189026,697.426819 539.301392,694.845337 
	C545.339417,694.845337 550.622314,694.570496 555.842163,695.022766 
	C557.296875,695.148804 559.007324,697.187805 559.847351,698.753418 
	C565.266846,708.854309 570.477600,719.067200 576.084900,729.875854 
	C581.553772,719.195190 586.875732,709.070984 591.910583,698.805908 
	C593.441895,695.683716 595.444702,694.340759 598.849915,694.507629 
	C602.506592,694.686829 606.178345,694.530334 609.841736,694.608276 
	C612.807617,694.671448 613.720825,695.813843 612.151123,698.701233 
	C608.378479,705.640991 604.785400,712.678345 601.038452,720.043335 
z"/>
<path fill="#FCFCFC" opacity="1.000000" stroke="none" 
	d="
M654.966736,318.799683 
	C652.626404,330.035126 651.235474,341.112122 647.728271,351.472748 
	C643.748657,363.229095 635.451294,371.777496 622.837402,375.050934 
	C609.260010,378.574310 597.925049,373.417084 587.016907,365.803314 
	C590.742188,361.574158 594.309021,357.524933 597.826660,353.531555 
	C598.329407,353.777405 598.682556,353.829590 598.791382,354.020782 
	C602.497437,360.532684 608.255432,363.958069 613.511292,362.748596 
	C620.371887,361.169769 625.691467,354.596893 625.809082,345.998718 
	C625.877625,340.984985 624.215210,335.963226 623.571350,330.914490 
	C623.377991,329.398651 623.408752,327.090576 624.325989,326.314301 
	C633.999512,318.127380 643.873352,310.177307 653.691895,302.161865 
	C654.121826,302.480286 654.551697,302.798706 654.981628,303.117126 
	C654.981628,308.186401 654.981628,313.255646 654.966736,318.799683 
z"/>
<path fill="#010101" opacity="1.000000" stroke="none" 
	d="
M301.689026,853.004944 
	C313.198029,852.960022 314.414001,860.565979 312.271240,868.064880 
	C311.166382,871.931580 308.218567,874.033020 304.111115,874.076416 
	C297.838409,874.142761 291.564484,874.093811 285.105713,874.093811 
	C285.105713,867.196289 285.105713,860.425720 285.105713,853.004761 
	C290.384613,853.004761 295.805664,853.004761 301.689026,853.004944 
z"/>
<path fill="#060606" opacity="1.000000" stroke="none" 
	d="
M310.519562,835.267151 
	C307.689423,836.560791 305.176300,838.204224 302.554077,838.402100 
	C296.809601,838.835693 291.009827,838.536377 285.062439,838.536377 
	C285.062439,832.183960 285.062439,826.067078 285.062439,819.456238 
	C290.554596,819.456238 296.005127,819.317078 301.446075,819.486450 
	C311.375214,819.795471 314.892395,825.714355 310.519562,835.267151 
z"/>
<path fill="#020202" opacity="1.000000" stroke="none" 
	d="
M483.317932,847.990112 
	C482.945435,852.778381 483.064270,857.165588 482.194611,861.347229 
	C480.458466,869.695129 476.359375,873.250854 467.957886,873.874573 
	C462.854553,874.253479 457.700134,873.944397 452.072845,873.944397 
	C452.072845,864.729309 452.072845,855.793518 452.072845,846.857788 
	C452.072845,838.050781 452.072845,829.243713 452.072845,819.457764 
	C458.831604,819.818298 465.467957,819.571960 471.872742,820.672668 
	C479.158264,821.924805 482.374298,826.672913 482.962921,835.015930 
	C483.255615,839.164734 483.238953,843.335327 483.317932,847.990112 
z"/>
<path fill="#010101" opacity="1.000000" stroke="none" 
	d="
M710.991699,842.219238 
	C707.845825,842.219116 705.194275,842.219116 702.244263,842.219116 
	C702.244263,834.813171 702.244263,827.454468 702.244263,819.850891 
	C708.550659,819.850891 714.808533,819.666809 721.050354,819.905396 
	C726.691040,820.121033 729.797241,823.733459 729.998779,829.643860 
	C730.249023,836.982300 727.348450,841.314331 721.430054,841.949341 
	C718.143555,842.301941 714.802429,842.146057 710.991699,842.219238 
z"/>
<path fill="#020202" opacity="1.000000" stroke="none" 
	d="
M319.323120,762.809570 
	C317.415924,759.561584 314.836609,756.692322 314.364532,753.510437 
	C312.727966,742.480530 312.187103,731.335083 315.014160,720.355957 
	C316.825378,713.321960 322.109680,709.343567 329.516693,709.114807 
	C336.629974,708.895081 341.878235,712.010803 343.991394,718.808899 
	C345.338135,723.141418 345.811005,727.855713 345.963287,732.422607 
	C346.173248,738.718140 346.480682,745.174011 345.380737,751.316589 
	C342.876038,765.303894 332.146118,769.934448 319.323120,762.809570 
z"/>
<path fill="#030303" opacity="1.000000" stroke="none" 
	d="
M385.484497,834.554260 
	C388.098297,842.168518 390.502869,849.442993 392.963684,856.887634 
	C385.573914,856.887634 378.451965,856.887634 370.828094,856.887634 
	C374.457336,845.855774 378.005920,835.069031 381.813385,823.495422 
	C383.098083,827.473206 384.186676,830.843811 385.484497,834.554260 
z"/>
</svg>
