<svg version="1.1" id="Layer_1" xmlns="http://www.w3.org/2000/svg" xmlns:xlink="http://www.w3.org/1999/xlink" x="0px" y="0px"
	 width="100%" viewBox="0 0 562 582" enable-background="new 0 0 562 582" xml:space="preserve">
<path fill="#010100" opacity="1.000000" stroke="none" 
	d="
M333.000000,583.000000 
	C222.000000,583.000000 111.500000,583.000000 1.000000,583.000000 
	C1.000000,389.000000 1.000000,195.000000 1.000000,1.000000 
	C188.333328,1.000000 375.666656,1.000000 563.000000,1.000000 
	C563.000000,195.000000 563.000000,389.000000 563.000000,583.000000 
	C486.500000,583.000000 410.000000,583.000000 333.000000,583.000000 
M262.923553,400.572632 
	C262.923645,415.070038 262.991821,429.568054 262.864899,444.064331 
	C262.840302,446.873077 263.596588,448.549561 266.157532,449.994232 
	C280.348846,457.999695 294.460876,466.148315 308.505005,474.409546 
	C310.827148,475.775482 312.462494,475.813934 314.806152,474.434875 
	C328.845337,466.173828 343.045135,458.184845 357.041779,449.853699 
	C358.641449,448.901550 360.242249,446.403412 360.269196,444.598602 
	C360.515717,428.105042 360.514862,411.604767 360.269287,395.111145 
	C360.242432,393.307495 358.641541,390.877014 357.052307,389.861389 
	C350.748962,385.833130 344.143494,382.280029 337.680023,378.499481 
	C310.037598,362.330902 309.983551,327.322662 337.604736,311.311493 
	C357.594177,299.724182 377.610687,288.182739 397.687988,276.748749 
	C400.307770,275.256805 401.403900,273.646332 401.392334,270.533417 
	C401.273254,238.539185 401.275787,206.544189 401.391541,174.549927 
	C401.402191,171.610962 400.353699,170.128799 397.910522,168.727951 
	C370.209198,152.844971 342.547882,136.891617 314.951660,120.826889 
	C312.449585,119.370361 310.719208,119.460701 308.271881,120.891251 
	C289.164337,132.060165 269.930908,143.013535 250.806961,154.154648 
	C243.749649,158.266068 236.220703,160.733643 228.109299,160.912811 
	C203.722351,161.451385 183.165695,141.499374 182.963486,117.121620 
	C182.822510,100.125603 182.852585,83.126869 182.995117,66.130936 
	C183.021637,62.969101 182.264572,61.110870 179.320770,59.438465 
	C156.771225,46.627846 134.315979,33.649635 111.926964,20.560064 
	C108.930069,18.807953 106.716583,18.825428 103.728760,20.571640 
	C81.323776,33.666077 58.834202,46.616516 36.308697,59.502934 
	C33.893764,60.884468 32.850208,62.330513 32.864513,65.251823 
	C32.994282,91.746780 32.986656,118.242828 32.874214,144.737946 
	C32.862103,147.591782 33.749493,149.130402 36.233887,150.551682 
	C58.904671,163.521255 81.525131,176.580093 104.063652,189.777908 
	C106.913300,191.446564 108.965042,191.300140 111.712212,189.677170 
	C125.750130,181.383835 139.875671,173.237122 154.027771,165.139114 
	C185.840790,146.935226 221.786346,167.804993 221.882843,204.533188 
	C221.939331,226.029465 221.997177,247.526947 221.801315,269.021576 
	C221.765350,272.968048 222.888931,275.198853 226.405167,277.187866 
	C246.823685,288.738098 267.189484,300.389374 287.379364,312.333923 
	C312.463043,327.173737 312.581146,361.932587 287.730072,377.235046 
	C281.925385,380.809326 276.141052,384.518585 269.985962,387.391541 
	C264.440155,389.980072 261.648987,393.422882 262.923553,400.572632 
M203.762894,331.349396 
	C203.308273,330.711182 202.994675,329.832336 202.377869,329.470886 
	C193.344833,324.177155 184.322708,318.858856 175.145813,313.823822 
	C173.929123,313.156219 171.597610,313.507568 170.255783,314.246613 
	C161.969620,318.810120 153.745224,323.499939 145.690460,328.456757 
	C144.211136,329.367126 142.778976,331.669312 142.729279,333.370087 
	C142.447388,343.015381 142.470535,352.676208 142.713959,362.323578 
	C142.753876,363.905975 144.017181,366.078308 145.370529,366.905060 
	C153.593231,371.928497 161.939163,376.764648 170.418716,381.339355 
	C171.880600,382.128082 174.534393,382.021423 176.032684,381.210571 
	C184.351944,376.708252 192.572357,372.002228 200.604935,367.009338 
	C202.168335,366.037567 203.591614,363.515411 203.647675,361.665039 
	C203.944916,351.854126 203.785202,342.029358 203.762894,331.349396 
M425.992828,81.699326 
	C425.993103,90.196808 426.105499,98.696640 425.927643,107.190392 
	C425.871826,109.855125 426.621338,111.390778 429.010986,112.711960 
	C437.165985,117.220657 445.103790,122.126732 453.316376,126.522713 
	C454.957458,127.401146 457.853821,127.465157 459.472015,126.598648 
	C467.829681,122.123192 476.035645,117.345375 484.099121,112.357124 
	C485.535004,111.468842 486.815796,109.113853 486.863708,107.399673 
	C487.128937,97.909904 487.132874,88.404739 486.858612,78.915466 
	C486.809540,77.217133 485.447998,74.904633 483.994049,74.007248 
	C475.924957,69.026863 467.564545,64.519524 459.475403,59.569893 
	C457.057068,58.090176 455.414551,58.439831 453.205109,59.763023 
	C445.640045,64.293541 438.065247,68.833862 430.263672,72.931602 
	C426.770111,74.766594 425.328430,77.011459 425.992828,81.699326 
M427.631592,339.973724 
	C430.650787,338.226471 433.497833,336.011475 436.723236,334.824524 
	C444.632202,331.914093 446.175903,326.498413 446.370209,318.443604 
	C446.589966,309.334930 443.907776,304.376221 435.807190,299.926727 
	C428.520447,295.924286 423.562744,295.751617 416.217224,299.831604 
	C408.170990,304.300812 405.458618,309.192352 405.558472,318.340240 
	C405.650269,326.750763 407.546539,332.113831 415.548584,335.042114 
	C419.471313,336.477570 423.177155,338.505920 427.631592,339.973724 
M153.346451,522.596313 
	C153.346451,527.909546 153.346451,533.222778 153.346451,538.536011 
	C147.189316,530.067993 142.153900,521.491150 136.880783,513.063110 
	C135.978683,511.621307 134.155975,510.060577 132.594421,509.864899 
	C128.870300,509.398254 125.048088,509.714417 121.209290,509.714417 
	C121.209290,511.766876 121.209290,513.372864 121.209290,514.905945 
	C122.925575,515.494812 124.421928,516.008179 125.684875,516.441528 
	C125.684875,527.346985 125.684875,537.810852 125.684875,548.365906 
	C124.045319,548.894775 122.554695,549.375610 120.932968,549.898804 
	C121.033310,551.735535 121.118736,553.299316 121.200951,554.804260 
	C127.577133,554.804260 133.531479,554.804260 139.653839,554.804260 
	C139.653839,553.020630 139.653839,551.441895 139.653839,549.766235 
	C137.992691,549.240906 136.497269,548.767944 135.254242,548.374817 
	C135.254242,540.608887 135.254242,533.231934 135.254242,524.798157 
	C140.397324,533.344849 145.441086,540.756165 149.438934,548.694214 
	C152.343628,554.461792 156.090332,556.369141 162.474060,554.505066 
	C162.474060,541.941345 162.474060,529.170715 162.474060,516.471252 
	C164.258499,515.855774 165.647705,515.376709 166.995758,514.911743 
	C166.995758,513.167297 166.995758,511.581177 166.995758,509.944519 
	C160.782166,509.944519 154.848892,509.944519 149.074829,509.944519 
	C147.269623,514.324402 149.748108,515.795715 153.346436,516.300415 
	C153.346436,518.329651 153.346436,519.982971 153.346451,522.596313 
M44.505535,536.103210 
	C47.611881,536.103210 50.718227,536.103210 53.860386,536.103210 
	C53.860386,540.607971 53.860386,544.545471 53.860386,548.481506 
	C52.270374,548.932983 50.888672,549.325256 49.463139,549.729980 
	C49.463139,551.527527 49.463139,553.095093 49.463139,554.750427 
	C55.800064,554.750427 61.881554,554.750427 68.127274,554.750427 
	C68.018303,552.864319 67.924950,551.248596 67.829147,549.590515 
	C66.177750,549.168457 64.794456,548.814941 63.336327,548.442261 
	C63.336327,537.534241 63.336327,526.926941 63.336327,516.367065 
	C65.017746,515.806213 66.529877,515.301819 67.876068,514.852783 
	C67.876068,512.971924 67.876068,511.508026 67.876068,510.012085 
	C61.626499,510.012085 55.566780,510.012085 49.374390,510.012085 
	C49.374390,511.769043 49.374390,513.221313 49.374390,514.822937 
	C50.983280,515.365356 52.488934,515.872986 53.785149,516.309998 
	C53.785149,520.709412 53.785149,524.785767 53.785149,528.696106 
	C47.597538,528.696106 41.719639,528.696106 35.930046,528.696106 
	C35.930046,524.348755 35.930046,520.378296 35.930046,516.452026 
	C37.564186,515.814697 39.043789,515.237549 40.634151,514.617249 
	C40.513966,512.895508 40.414116,511.465149 40.304947,509.901306 
	C34.073555,509.901306 28.145836,509.901306 22.031437,509.901306 
	C22.031437,511.690338 22.031437,513.286438 22.031437,514.804016 
	C23.711912,515.494690 25.178455,516.097473 26.605412,516.684021 
	C26.605412,525.793274 26.408033,534.619019 26.699301,543.428589 
	C26.821541,547.125793 26.112944,549.501343 22.035988,549.640930 
	C22.035988,551.531555 22.035988,553.118164 22.035988,554.668030 
	C28.325066,554.668030 34.389755,554.668030 40.161404,554.668030 
	C42.089520,549.964600 38.890362,549.024902 35.974762,548.298828 
	C35.974762,544.135681 35.974762,540.351379 35.974762,536.103210 
	C38.628407,536.103210 41.081341,536.103210 44.505535,536.103210 
M507.743866,548.923584 
	C503.058838,549.264587 504.461761,552.211182 504.867615,554.786011 
	C511.150360,554.786011 517.100464,554.786011 523.255066,554.786011 
	C523.164490,552.932983 523.085632,551.320251 523.011230,549.797913 
	C514.612244,547.721130 520.101501,541.427734 518.154663,537.391174 
	C528.997559,535.569031 531.979797,537.264221 532.627686,545.158386 
	C533.351746,553.980591 535.489319,555.637268 544.900940,554.670593 
	C545.414856,550.203857 539.330505,536.341797 535.116821,532.479797 
	C540.539124,529.714966 542.060242,525.132202 540.940308,519.507874 
	C539.964905,514.609558 535.295410,510.436584 529.331299,510.116821 
	C521.236511,509.682800 513.101013,510.008759 504.720215,510.008759 
	C504.720215,511.652588 504.720215,513.234680 504.720215,514.820618 
	C506.319946,515.447388 507.793884,516.024841 508.597717,516.339783 
	C508.597717,527.513000 508.597717,538.107910 507.743866,548.923584 
M315.621521,518.363403 
	C313.775696,512.904724 309.391754,510.436005 304.203949,510.152466 
	C295.951904,509.701477 287.657135,510.032074 279.187256,510.032074 
	C279.187256,511.728149 279.187256,513.315613 279.187256,514.876221 
	C280.853943,515.449829 282.358307,515.967468 283.580597,516.388123 
	C283.580597,527.393311 283.580597,537.992004 283.580597,548.493164 
	C281.888489,548.974182 280.500519,549.368835 279.249939,549.724365 
	C279.249939,551.612061 279.249939,553.193970 279.249939,554.178589 
	C288.953583,554.178589 298.442688,554.763184 307.815765,553.972473 
	C314.034546,553.447876 317.196411,548.976807 317.741608,543.187073 
	C318.235107,537.947083 315.938599,534.290527 310.202057,531.409180 
	C314.924011,528.575378 316.818695,524.485046 315.621521,518.363403 
M408.319397,545.660034 
	C412.005066,537.700928 411.834991,529.420532 409.315033,521.364319 
	C407.213531,514.645813 401.896637,510.566132 394.887573,510.073120 
	C387.139343,509.528137 379.323212,509.948608 371.357086,509.948608 
	C371.357086,511.683838 371.357086,513.287170 371.357086,514.828064 
	C373.056915,515.429443 374.548462,515.957153 375.775146,516.391113 
	C375.775146,527.392639 375.775146,537.988586 375.775146,548.506104 
	C374.136200,548.977478 372.748688,549.376526 371.424988,549.757202 
	C371.424988,551.578735 371.424988,553.146423 371.424988,555.008423 
	C378.159637,555.008423 384.622314,554.995605 391.084930,555.011841 
	C398.222504,555.029724 403.991638,552.404663 408.319397,545.660034 
M173.584854,509.747253 
	C173.092041,511.325043 172.599213,512.902832 172.065552,514.611389 
	C174.208954,515.398193 175.696335,515.944153 176.943359,516.401917 
	C176.943359,527.381165 176.943359,537.992065 176.943359,548.783936 
	C171.899246,548.696655 171.890625,551.420349 172.876358,554.778137 
	C184.807358,554.778137 196.404861,554.778137 207.995850,554.778137 
	C207.995850,550.641724 207.995850,546.745911 207.995850,543.045898 
	C205.588806,543.045898 203.517227,543.045898 201.476486,543.045898 
	C201.226822,544.875793 201.030746,546.312927 200.826614,547.809082 
	C196.003326,547.809082 191.382065,547.809082 186.598907,547.809082 
	C186.598907,543.552368 186.598907,539.482239 186.598907,534.954102 
	C191.732742,534.954102 196.661774,534.954102 201.573334,534.954102 
	C201.573334,532.433105 201.573334,530.376892 201.573334,527.876709 
	C196.370956,527.876709 191.457153,527.876709 186.667511,527.876709 
	C186.667511,523.997559 186.667511,520.572021 186.667511,517.009888 
	C191.535156,517.009888 196.112228,517.009888 200.665710,517.009888 
	C200.998428,518.809265 201.285980,520.364380 201.535568,521.714111 
	C203.954636,521.714111 206.016815,521.714111 208.015015,521.714111 
	C208.015015,517.597290 208.015015,513.823914 208.015015,509.709961 
	C196.663483,509.709961 185.541718,509.709961 173.584854,509.747253 
M492.161591,509.705231 
	C482.195282,509.705231 472.229004,509.705231 462.038879,509.705231 
	C462.038879,511.597351 462.038879,513.195251 462.038879,514.829346 
	C463.641357,515.462646 465.126129,516.049438 466.391174,516.549377 
	C466.391174,527.328613 466.391174,537.784546 466.391174,548.401978 
	C464.861420,548.849976 463.480072,549.254517 461.986572,549.691956 
	C461.986572,551.454102 461.986572,553.053345 461.986572,555.013306 
	C467.953003,555.013306 473.751556,555.013367 479.550110,555.013367 
	C485.485962,555.013367 491.421814,555.013306 497.534302,555.013306 
	C497.534302,550.723389 497.534302,546.971130 497.534302,542.933350 
	C495.294220,542.933350 493.215607,542.933350 490.958557,542.933350 
	C490.634003,544.591125 490.323120,546.179199 490.017487,547.740356 
	C485.228912,547.740356 480.632568,547.740356 476.073853,547.740356 
	C476.073853,543.427185 476.073853,539.372864 476.073853,534.986572 
	C481.131012,534.986572 485.896332,534.986572 490.831177,534.986572 
	C490.831177,532.571655 490.831177,530.502563 490.831177,527.940308 
	C485.757385,527.940308 480.856689,527.940308 476.001343,527.940308 
	C476.001343,524.016541 476.001343,520.590759 476.001343,517.035583 
	C480.799194,517.035583 485.361603,517.035583 489.839752,517.035583 
	C490.256439,518.858459 490.609283,520.401917 490.944153,521.866882 
	C493.267090,521.866882 495.224365,521.866882 497.409424,521.866882 
	C497.409424,517.901794 497.409424,514.120361 497.409424,509.940002 
	C495.971527,509.862152 494.522949,509.783691 492.161591,509.705231 
M452.480499,551.818970 
	C453.295135,550.499146 454.733978,549.215210 454.812439,547.852966 
	C455.096710,542.917053 454.924469,537.954773 454.924469,532.901733 
	C449.451172,532.901733 444.407288,532.901733 439.349670,532.901733 
	C439.349670,535.038696 439.349670,536.812073 439.349670,538.733215 
	C441.459778,539.029541 443.383301,539.299683 445.232147,539.559326 
	C446.550385,547.547180 444.683319,549.487793 437.096222,548.549377 
	C431.877258,547.903870 428.149780,545.094177 427.202087,540.115662 
	C426.354248,535.661804 426.200989,530.843811 426.923431,526.377686 
	C427.997009,519.740540 432.240082,516.302368 437.910675,516.060181 
	C443.708221,515.812500 445.539886,517.235413 448.207153,524.013672 
	C450.309204,524.013672 452.379059,524.013672 455.349762,524.013672 
	C454.566406,520.395752 454.910004,516.349121 453.051544,514.363220 
	C444.460938,505.183685 426.162567,507.821838 420.184937,518.961243 
	C415.782410,527.165344 415.485626,535.955078 419.403442,544.432617 
	C424.660645,555.808472 438.489105,558.954712 452.480499,551.818970 
M113.963242,541.166687 
	C114.306259,537.047241 115.157272,532.895813 114.900688,528.814026 
	C113.992447,514.365784 100.322868,505.350647 87.194519,510.262543 
	C78.804153,513.401733 73.565247,522.878174 74.097839,533.952515 
	C74.621086,544.832458 80.894867,553.253662 89.841240,555.084778 
	C100.692047,557.305603 108.597733,552.958618 113.963242,541.166687 
M348.510742,509.773560 
	C339.807800,509.594086 339.823395,509.599548 336.958496,517.783264 
	C333.723938,527.022949 330.474274,536.257507 327.184875,545.477783 
	C326.754456,546.684143 326.134094,547.845886 325.451263,548.933838 
	C324.377472,550.644592 323.175812,552.275085 321.428314,554.809875 
	C328.089233,554.809875 333.029358,554.809875 338.960724,554.809875 
	C337.938019,552.190186 337.115051,550.082092 336.292084,547.973999 
	C335.946228,548.071716 335.600372,548.169434 335.254517,548.267151 
	C335.940369,546.464233 336.626251,544.661377 337.246307,543.031494 
	C342.317352,543.031494 346.950592,543.031494 353.069550,543.031494 
	C352.211243,547.228210 351.459473,550.903931 350.663605,554.795288 
	C356.037323,554.795288 360.961029,554.795288 366.417206,554.795288 
	C365.971588,552.798035 365.919830,550.943542 365.143188,549.471436 
	C364.020477,547.343384 361.856628,545.685425 361.035706,543.490723 
	C356.912750,532.467773 353.082214,521.335449 348.510742,509.773560 
M237.977768,525.407654 
	C237.194092,526.926208 236.410416,528.444763 235.372009,530.456909 
	C232.983505,525.419678 230.863846,520.949402 229.390259,517.841614 
	C230.760468,514.633972 231.673569,512.496460 232.768723,509.932739 
	C226.098801,509.932739 220.670090,509.932739 215.081879,509.932739 
	C215.081879,511.615814 215.081879,513.079285 215.081879,514.534973 
	C222.141388,517.571106 231.636810,538.363159 230.473831,548.443665 
	C229.057632,548.889709 227.562408,549.360657 226.262756,549.769958 
	C226.262756,551.681458 226.262756,553.245911 226.262756,554.669006 
	C232.624161,554.669006 238.689377,554.669006 244.893158,554.669006 
	C244.807236,552.853760 244.737717,551.385376 244.660583,549.755859 
	C243.027222,549.267334 241.524384,548.817810 240.135788,548.402527 
	C239.568726,537.696167 248.962311,517.684814 256.084869,514.292542 
	C256.015533,512.892761 255.943054,511.429626 255.865875,509.871399 
	C250.208038,509.871399 244.767227,509.871399 237.965897,509.871399 
	C239.328552,512.661621 240.367218,514.788452 241.695892,517.509094 
	C240.818024,519.341248 239.532532,522.024109 237.977768,525.407654 
z"/>
<path fill="#FEFC58" opacity="1.000000" stroke="none" 
	d="
M262.923553,400.086639 
	C261.648987,393.422882 264.440155,389.980072 269.985962,387.391541 
	C276.141052,384.518585 281.925385,380.809326 287.730072,377.235046 
	C312.581146,361.932587 312.463043,327.173737 287.379364,312.333923 
	C267.189484,300.389374 246.823685,288.738098 226.405167,277.187866 
	C222.888931,275.198853 221.765350,272.968048 221.801315,269.021576 
	C221.997177,247.526947 221.939331,226.029465 221.882843,204.533188 
	C221.786346,167.804993 185.840790,146.935226 154.027771,165.139114 
	C139.875671,173.237122 125.750130,181.383835 111.712212,189.677170 
	C108.965042,191.300140 106.913300,191.446564 104.063652,189.777908 
	C81.525131,176.580093 58.904671,163.521255 36.233887,150.551682 
	C33.749493,149.130402 32.862103,147.591782 32.874214,144.737946 
	C32.986656,118.242828 32.994282,91.746780 32.864513,65.251823 
	C32.850208,62.330513 33.893764,60.884468 36.308697,59.502934 
	C58.834202,46.616516 81.323776,33.666077 103.728760,20.571640 
	C106.716583,18.825428 108.930069,18.807953 111.926964,20.560064 
	C134.315979,33.649635 156.771225,46.627846 179.320770,59.438465 
	C182.264572,61.110870 183.021637,62.969101 182.995117,66.130936 
	C182.852585,83.126869 182.822510,100.125603 182.963486,117.121620 
	C183.165695,141.499374 203.722351,161.451385 228.109299,160.912811 
	C236.220703,160.733643 243.749649,158.266068 250.806961,154.154648 
	C269.930908,143.013535 289.164337,132.060165 308.271881,120.891251 
	C310.719208,119.460701 312.449585,119.370361 314.951660,120.826889 
	C342.547882,136.891617 370.209198,152.844971 397.910522,168.727951 
	C400.353699,170.128799 401.402191,171.610962 401.391541,174.549927 
	C401.275787,206.544189 401.273254,238.539185 401.392334,270.533417 
	C401.403900,273.646332 400.307770,275.256805 397.687988,276.748749 
	C377.610687,288.182739 357.594177,299.724182 337.604736,311.311493 
	C309.983551,327.322662 310.037598,362.330902 337.680023,378.499481 
	C344.143494,382.280029 350.748962,385.833130 357.052307,389.861389 
	C358.641541,390.877014 360.242432,393.307495 360.269287,395.111145 
	C360.514862,411.604767 360.515717,428.105042 360.269196,444.598602 
	C360.242249,446.403412 358.641449,448.901550 357.041779,449.853699 
	C343.045135,458.184845 328.845337,466.173828 314.806152,474.434875 
	C312.462494,475.813934 310.827148,475.775482 308.505005,474.409546 
	C294.460876,466.148315 280.348846,457.999695 266.157532,449.994232 
	C263.596588,448.549561 262.840302,446.873077 262.864899,444.064331 
	C262.991821,429.568054 262.923645,415.070038 262.923553,400.086639 
z"/>
<path fill="#FCFA57" opacity="1.000000" stroke="none" 
	d="
M203.773346,331.779419 
	C203.785202,342.029358 203.944916,351.854126 203.647675,361.665039 
	C203.591614,363.515411 202.168335,366.037567 200.604935,367.009338 
	C192.572357,372.002228 184.351944,376.708252 176.032684,381.210571 
	C174.534393,382.021423 171.880600,382.128082 170.418716,381.339355 
	C161.939163,376.764648 153.593231,371.928497 145.370529,366.905060 
	C144.017181,366.078308 142.753876,363.905975 142.713959,362.323578 
	C142.470535,352.676208 142.447388,343.015381 142.729279,333.370087 
	C142.778976,331.669312 144.211136,329.367126 145.690460,328.456757 
	C153.745224,323.499939 161.969620,318.810120 170.255783,314.246613 
	C171.597610,313.507568 173.929123,313.156219 175.145813,313.823822 
	C184.322708,318.858856 193.344833,324.177155 202.377869,329.470886 
	C202.994675,329.832336 203.308273,330.711182 203.773346,331.779419 
z"/>
<path fill="#FDFB57" opacity="1.000000" stroke="none" 
	d="
M425.992737,81.232841 
	C425.328430,77.011459 426.770111,74.766594 430.263672,72.931602 
	C438.065247,68.833862 445.640045,64.293541 453.205109,59.763023 
	C455.414551,58.439831 457.057068,58.090176 459.475403,59.569893 
	C467.564545,64.519524 475.924957,69.026863 483.994049,74.007248 
	C485.447998,74.904633 486.809540,77.217133 486.858612,78.915466 
	C487.132874,88.404739 487.128937,97.909904 486.863708,107.399673 
	C486.815796,109.113853 485.535004,111.468842 484.099121,112.357124 
	C476.035645,117.345375 467.829681,122.123192 459.472015,126.598648 
	C457.853821,127.465157 454.957458,127.401146 453.316376,126.522713 
	C445.103790,122.126732 437.165985,117.220657 429.010986,112.711960 
	C426.621338,111.390778 425.871826,109.855125 425.927643,107.190392 
	C426.105499,98.696640 425.993103,90.196808 425.992737,81.232841 
z"/>
<path fill="#FCFA57" opacity="1.000000" stroke="none" 
	d="
M427.306366,340.119812 
	C423.177155,338.505920 419.471313,336.477570 415.548584,335.042114 
	C407.546539,332.113831 405.650269,326.750763 405.558472,318.340240 
	C405.458618,309.192352 408.170990,304.300812 416.217224,299.831604 
	C423.562744,295.751617 428.520447,295.924286 435.807190,299.926727 
	C443.907776,304.376221 446.589966,309.334930 446.370209,318.443604 
	C446.175903,326.498413 444.632202,331.914093 436.723236,334.824524 
	C433.497833,336.011475 430.650787,338.226471 427.306366,340.119812 
z"/>
<path fill="#FAFAFA" opacity="1.000000" stroke="none" 
	d="
M153.346436,522.116272 
	C153.346436,519.982971 153.346436,518.329651 153.346436,516.300415 
	C149.748108,515.795715 147.269623,514.324402 149.074829,509.944519 
	C154.848892,509.944519 160.782166,509.944519 166.995758,509.944519 
	C166.995758,511.581177 166.995758,513.167297 166.995758,514.911743 
	C165.647705,515.376709 164.258499,515.855774 162.474060,516.471252 
	C162.474060,529.170715 162.474060,541.941345 162.474060,554.505066 
	C156.090332,556.369141 152.343628,554.461792 149.438934,548.694214 
	C145.441086,540.756165 140.397324,533.344849 135.254242,524.798157 
	C135.254242,533.231934 135.254242,540.608887 135.254242,548.374817 
	C136.497269,548.767944 137.992691,549.240906 139.653839,549.766235 
	C139.653839,551.441895 139.653839,553.020630 139.653839,554.804260 
	C133.531479,554.804260 127.577133,554.804260 121.200951,554.804260 
	C121.118736,553.299316 121.033310,551.735535 120.932968,549.898804 
	C122.554695,549.375610 124.045319,548.894775 125.684875,548.365906 
	C125.684875,537.810852 125.684875,527.346985 125.684875,516.441528 
	C124.421928,516.008179 122.925575,515.494812 121.209290,514.905945 
	C121.209290,513.372864 121.209290,511.766876 121.209290,509.714417 
	C125.048088,509.714417 128.870300,509.398254 132.594421,509.864899 
	C134.155975,510.060577 135.978683,511.621307 136.880783,513.063110 
	C142.153900,521.491150 147.189316,530.067993 153.346451,538.536011 
	C153.346451,533.222778 153.346451,527.909546 153.346436,522.116272 
z"/>
<path fill="#F9F9F9" opacity="1.000000" stroke="none" 
	d="
M44.019905,536.103210 
	C41.081341,536.103210 38.628407,536.103210 35.974762,536.103210 
	C35.974762,540.351379 35.974762,544.135681 35.974762,548.298828 
	C38.890362,549.024902 42.089520,549.964600 40.161404,554.668030 
	C34.389755,554.668030 28.325066,554.668030 22.035988,554.668030 
	C22.035988,553.118164 22.035988,551.531555 22.035988,549.640930 
	C26.112944,549.501343 26.821541,547.125793 26.699301,543.428589 
	C26.408033,534.619019 26.605412,525.793274 26.605412,516.684021 
	C25.178455,516.097473 23.711912,515.494690 22.031437,514.804016 
	C22.031437,513.286438 22.031437,511.690338 22.031437,509.901306 
	C28.145836,509.901306 34.073555,509.901306 40.304947,509.901306 
	C40.414116,511.465149 40.513966,512.895508 40.634151,514.617249 
	C39.043789,515.237549 37.564186,515.814697 35.930046,516.452026 
	C35.930046,520.378296 35.930046,524.348755 35.930046,528.696106 
	C41.719639,528.696106 47.597538,528.696106 53.785149,528.696106 
	C53.785149,524.785767 53.785149,520.709412 53.785149,516.309998 
	C52.488934,515.872986 50.983280,515.365356 49.374390,514.822937 
	C49.374390,513.221313 49.374390,511.769043 49.374390,510.012085 
	C55.566780,510.012085 61.626499,510.012085 67.876068,510.012085 
	C67.876068,511.508026 67.876068,512.971924 67.876068,514.852783 
	C66.529877,515.301819 65.017746,515.806213 63.336327,516.367065 
	C63.336327,526.926941 63.336327,537.534241 63.336327,548.442261 
	C64.794456,548.814941 66.177750,549.168457 67.829147,549.590515 
	C67.924950,551.248596 68.018303,552.864319 68.127274,554.750427 
	C61.881554,554.750427 55.800064,554.750427 49.463139,554.750427 
	C49.463139,553.095093 49.463139,551.527527 49.463139,549.729980 
	C50.888672,549.325256 52.270374,548.932983 53.860386,548.481506 
	C53.860386,544.545471 53.860386,540.607971 53.860386,536.103210 
	C50.718227,536.103210 47.611881,536.103210 44.019905,536.103210 
z"/>
<path fill="#F6F6F6" opacity="1.000000" stroke="none" 
	d="
M508.170776,548.813171 
	C508.597717,538.107910 508.597717,527.513000 508.597717,516.339783 
	C507.793884,516.024841 506.319946,515.447388 504.720215,514.820618 
	C504.720215,513.234680 504.720215,511.652588 504.720215,510.008759 
	C513.101013,510.008759 521.236511,509.682800 529.331299,510.116821 
	C535.295410,510.436584 539.964905,514.609558 540.940308,519.507874 
	C542.060242,525.132202 540.539124,529.714966 535.116821,532.479797 
	C539.330505,536.341797 545.414856,550.203857 544.900940,554.670593 
	C535.489319,555.637268 533.351746,553.980591 532.627686,545.158386 
	C531.979797,537.264221 528.997559,535.569031 518.154663,537.391174 
	C520.101501,541.427734 514.612244,547.721130 523.011230,549.797913 
	C523.085632,551.320251 523.164490,552.932983 523.255066,554.786011 
	C517.100464,554.786011 511.150360,554.786011 504.867615,554.786011 
	C504.461761,552.211182 503.058838,549.264587 508.170776,548.813171 
M530.967896,527.267517 
	C534.241943,519.043884 530.230103,515.678589 518.635132,517.144836 
	C518.635132,521.183228 518.635132,525.247864 518.635132,530.440674 
	C522.904053,529.517273 526.673401,528.701904 530.967896,527.267517 
z"/>
<path fill="#FAFAFA" opacity="1.000000" stroke="none" 
	d="
M315.737671,518.750183 
	C316.818695,524.485046 314.924011,528.575378 310.202057,531.409180 
	C315.938599,534.290527 318.235107,537.947083 317.741608,543.187073 
	C317.196411,548.976807 314.034546,553.447876 307.815765,553.972473 
	C298.442688,554.763184 288.953583,554.178589 279.249939,554.178589 
	C279.249939,553.193970 279.249939,551.612061 279.249939,549.724365 
	C280.500519,549.368835 281.888489,548.974182 283.580597,548.493164 
	C283.580597,537.992004 283.580597,527.393311 283.580597,516.388123 
	C282.358307,515.967468 280.853943,515.449829 279.187256,514.876221 
	C279.187256,513.315613 279.187256,511.728149 279.187256,510.032074 
	C287.657135,510.032074 295.951904,509.701477 304.203949,510.152466 
	C309.391754,510.436005 313.775696,512.904724 315.737671,518.750183 
M296.536377,548.009338 
	C298.524078,547.981506 300.517822,548.041992 302.498230,547.907166 
	C306.418945,547.640137 308.712158,545.434448 308.650940,541.546265 
	C308.588104,537.554993 306.515259,535.013916 302.171722,534.999695 
	C299.230804,534.990051 296.289795,534.997864 292.954559,534.997864 
	C292.954559,538.781189 292.783203,542.233521 293.075104,545.646240 
	C293.148041,546.499329 294.712616,547.224854 296.536377,548.009338 
M303.940582,527.743042 
	C306.966644,525.887512 308.035156,523.075500 306.297302,520.114990 
	C303.173828,514.794189 297.862640,517.331299 293.191650,516.777344 
	C293.191650,520.874817 293.191650,524.598999 293.191650,528.978149 
	C296.714111,528.635986 299.941498,528.322510 303.940582,527.743042 
z"/>
<path fill="#F9F9F9" opacity="1.000000" stroke="none" 
	d="
M408.160736,545.998474 
	C403.991638,552.404663 398.222504,555.029724 391.084930,555.011841 
	C384.622314,554.995605 378.159637,555.008423 371.424988,555.008423 
	C371.424988,553.146423 371.424988,551.578735 371.424988,549.757202 
	C372.748688,549.376526 374.136200,548.977478 375.775146,548.506104 
	C375.775146,537.988586 375.775146,527.392639 375.775146,516.391113 
	C374.548462,515.957153 373.056915,515.429443 371.357086,514.828064 
	C371.357086,513.287170 371.357086,511.683838 371.357086,509.948608 
	C379.323212,509.948608 387.139343,509.528137 394.887573,510.073120 
	C401.896637,510.566132 407.213531,514.645813 409.315033,521.364319 
	C411.834991,529.420532 412.005066,537.700928 408.160736,545.998474 
M385.096313,537.472046 
	C385.096313,540.909302 385.096313,544.346619 385.096313,547.870972 
	C390.947632,548.032043 396.880463,549.217224 399.630188,543.100647 
	C402.880310,535.871033 403.057495,528.166565 399.303650,521.033997 
	C396.311890,515.349365 390.621918,516.805603 385.096313,516.929504 
	C385.096313,523.584473 385.096313,530.031616 385.096313,537.472046 
z"/>
<path fill="#F8F8F8" opacity="1.000000" stroke="none" 
	d="
M174.002411,509.728607 
	C185.541718,509.709961 196.663483,509.709961 208.015015,509.709961 
	C208.015015,513.823914 208.015015,517.597290 208.015015,521.714111 
	C206.016815,521.714111 203.954636,521.714111 201.535568,521.714111 
	C201.285980,520.364380 200.998428,518.809265 200.665710,517.009888 
	C196.112228,517.009888 191.535156,517.009888 186.667511,517.009888 
	C186.667511,520.572021 186.667511,523.997559 186.667511,527.876709 
	C191.457153,527.876709 196.370956,527.876709 201.573334,527.876709 
	C201.573334,530.376892 201.573334,532.433105 201.573334,534.954102 
	C196.661774,534.954102 191.732742,534.954102 186.598907,534.954102 
	C186.598907,539.482239 186.598907,543.552368 186.598907,547.809082 
	C191.382065,547.809082 196.003326,547.809082 200.826614,547.809082 
	C201.030746,546.312927 201.226822,544.875793 201.476486,543.045898 
	C203.517227,543.045898 205.588806,543.045898 207.995850,543.045898 
	C207.995850,546.745911 207.995850,550.641724 207.995850,554.778137 
	C196.404861,554.778137 184.807358,554.778137 172.876358,554.778137 
	C171.890625,551.420349 171.899246,548.696655 176.943359,548.783936 
	C176.943359,537.992065 176.943359,527.381165 176.943359,516.401917 
	C175.696335,515.944153 174.208954,515.398193 172.065552,514.611389 
	C172.599213,512.902832 173.092041,511.325043 174.002411,509.728607 
z"/>
<path fill="#F8F8F8" opacity="1.000000" stroke="none" 
	d="
M492.617981,509.705231 
	C494.522949,509.783691 495.971527,509.862152 497.409424,509.940002 
	C497.409424,514.120361 497.409424,517.901794 497.409424,521.866882 
	C495.224365,521.866882 493.267090,521.866882 490.944153,521.866882 
	C490.609283,520.401917 490.256439,518.858459 489.839752,517.035583 
	C485.361603,517.035583 480.799194,517.035583 476.001343,517.035583 
	C476.001343,520.590759 476.001343,524.016541 476.001343,527.940308 
	C480.856689,527.940308 485.757385,527.940308 490.831177,527.940308 
	C490.831177,530.502563 490.831177,532.571655 490.831177,534.986572 
	C485.896332,534.986572 481.131012,534.986572 476.073853,534.986572 
	C476.073853,539.372864 476.073853,543.427185 476.073853,547.740356 
	C480.632568,547.740356 485.228912,547.740356 490.017487,547.740356 
	C490.323120,546.179199 490.634003,544.591125 490.958557,542.933350 
	C493.215607,542.933350 495.294220,542.933350 497.534302,542.933350 
	C497.534302,546.971130 497.534302,550.723389 497.534302,555.013306 
	C491.421814,555.013306 485.485962,555.013367 479.550110,555.013367 
	C473.751556,555.013367 467.953003,555.013306 461.986572,555.013306 
	C461.986572,553.053345 461.986572,551.454102 461.986572,549.691956 
	C463.480072,549.254517 464.861420,548.849976 466.391174,548.401978 
	C466.391174,537.784546 466.391174,527.328613 466.391174,516.549377 
	C465.126129,516.049438 463.641357,515.462646 462.038879,514.829346 
	C462.038879,513.195251 462.038879,511.597351 462.038879,509.705231 
	C472.229004,509.705231 482.195282,509.705231 492.617981,509.705231 
z"/>
<path fill="#F6F6F6" opacity="1.000000" stroke="none" 
	d="
M452.124451,551.991943 
	C438.489105,558.954712 424.660645,555.808472 419.403442,544.432617 
	C415.485626,535.955078 415.782410,527.165344 420.184937,518.961243 
	C426.162567,507.821838 444.460938,505.183685 453.051544,514.363220 
	C454.910004,516.349121 454.566406,520.395752 455.349762,524.013672 
	C452.379059,524.013672 450.309204,524.013672 448.207153,524.013672 
	C445.539886,517.235413 443.708221,515.812500 437.910675,516.060181 
	C432.240082,516.302368 427.997009,519.740540 426.923431,526.377686 
	C426.200989,530.843811 426.354248,535.661804 427.202087,540.115662 
	C428.149780,545.094177 431.877258,547.903870 437.096222,548.549377 
	C444.683319,549.487793 446.550385,547.547180 445.232147,539.559326 
	C443.383301,539.299683 441.459778,539.029541 439.349670,538.733215 
	C439.349670,536.812073 439.349670,535.038696 439.349670,532.901733 
	C444.407288,532.901733 449.451172,532.901733 454.924469,532.901733 
	C454.924469,537.954773 455.096710,542.917053 454.812439,547.852966 
	C454.733978,549.215210 453.295135,550.499146 452.124451,551.991943 
z"/>
<path fill="#F7F7F7" opacity="1.000000" stroke="none" 
	d="
M113.852821,541.554810 
	C108.597733,552.958618 100.692047,557.305603 89.841240,555.084778 
	C80.894867,553.253662 74.621086,544.832458 74.097839,533.952515 
	C73.565247,522.878174 78.804153,513.401733 87.194519,510.262543 
	C100.322868,505.350647 113.992447,514.365784 114.900688,528.814026 
	C115.157272,532.895813 114.306259,537.047241 113.852821,541.554810 
M95.362030,548.478333 
	C100.344910,548.231445 103.252754,545.326477 104.695412,540.857300 
	C106.753418,534.481934 106.710297,528.117737 103.865631,521.937927 
	C101.995964,517.876160 98.636475,516.039673 94.285072,516.122009 
	C90.117210,516.200806 86.979103,518.117554 85.301788,522.038086 
	C82.720238,528.072083 82.637230,534.249390 84.483253,540.484131 
	C85.958313,545.465942 89.129463,548.397705 95.362030,548.478333 
z"/>
<path fill="#F8F8F8" opacity="1.000000" stroke="none" 
	d="
M348.829865,510.007568 
	C353.082214,521.335449 356.912750,532.467773 361.035706,543.490723 
	C361.856628,545.685425 364.020477,547.343384 365.143188,549.471436 
	C365.919830,550.943542 365.971588,552.798035 366.417206,554.795288 
	C360.961029,554.795288 356.037323,554.795288 350.663605,554.795288 
	C351.459473,550.903931 352.211243,547.228210 353.069550,543.031494 
	C346.950592,543.031494 342.317352,543.031494 337.246307,543.031494 
	C336.626251,544.661377 335.940369,546.464233 335.254517,548.267151 
	C335.600372,548.169434 335.946228,548.071716 336.292084,547.973999 
	C337.115051,550.082092 337.938019,552.190186 338.960724,554.809875 
	C333.029358,554.809875 328.089233,554.809875 321.428314,554.809875 
	C323.175812,552.275085 324.377472,550.644592 325.451263,548.933838 
	C326.134094,547.845886 326.754456,546.684143 327.184875,545.477783 
	C330.474274,536.257507 333.723938,527.022949 336.958496,517.783264 
	C339.823395,509.599548 339.807800,509.594086 348.829865,510.007568 
M344.490814,521.098938 
	C342.751282,525.918640 341.011749,530.738342 339.225677,535.686890 
	C343.095184,535.686890 346.091675,535.686890 349.494110,535.686890 
	C347.897766,530.723694 346.443695,526.202881 344.490814,521.098938 
z"/>
<path fill="#FAFAFA" opacity="1.000000" stroke="none" 
	d="
M238.112396,525.057312 
	C239.532532,522.024109 240.818024,519.341248 241.695892,517.509094 
	C240.367218,514.788452 239.328552,512.661621 237.965897,509.871399 
	C244.767227,509.871399 250.208038,509.871399 255.865875,509.871399 
	C255.943054,511.429626 256.015533,512.892761 256.084869,514.292542 
	C248.962311,517.684814 239.568726,537.696167 240.135788,548.402527 
	C241.524384,548.817810 243.027222,549.267334 244.660583,549.755859 
	C244.737717,551.385376 244.807236,552.853760 244.893158,554.669006 
	C238.689377,554.669006 232.624161,554.669006 226.262756,554.669006 
	C226.262756,553.245911 226.262756,551.681458 226.262756,549.769958 
	C227.562408,549.360657 229.057632,548.889709 230.473831,548.443665 
	C231.636810,538.363159 222.141388,517.571106 215.081879,514.534973 
	C215.081879,513.079285 215.081879,511.615814 215.081879,509.932739 
	C220.670090,509.932739 226.098801,509.932739 232.768723,509.932739 
	C231.673569,512.496460 230.760468,514.633972 229.390259,517.841614 
	C230.863846,520.949402 232.983505,525.419678 235.372009,530.456909 
	C236.410416,528.444763 237.194092,526.926208 238.112396,525.057312 
z"/>
<path fill="#0F0F0F" opacity="1.000000" stroke="none" 
	d="
M530.705322,527.577026 
	C526.673401,528.701904 522.904053,529.517273 518.635132,530.440674 
	C518.635132,525.247864 518.635132,521.183228 518.635132,517.144836 
	C530.230103,515.678589 534.241943,519.043884 530.705322,527.577026 
z"/>
<path fill="#060606" opacity="1.000000" stroke="none" 
	d="
M296.064026,548.009155 
	C294.712616,547.224854 293.148041,546.499329 293.075104,545.646240 
	C292.783203,542.233521 292.954559,538.781189 292.954559,534.997864 
	C296.289795,534.997864 299.230804,534.990051 302.171722,534.999695 
	C306.515259,535.013916 308.588104,537.554993 308.650940,541.546265 
	C308.712158,545.434448 306.418945,547.640137 302.498230,547.907166 
	C300.517822,548.041992 298.524078,547.981506 296.064026,548.009155 
z"/>
<path fill="#090909" opacity="1.000000" stroke="none" 
	d="
M303.554749,527.876038 
	C299.941498,528.322510 296.714111,528.635986 293.191650,528.978149 
	C293.191650,524.598999 293.191650,520.874817 293.191650,516.777344 
	C297.862640,517.331299 303.173828,514.794189 306.297302,520.114990 
	C308.035156,523.075500 306.966644,525.887512 303.554749,527.876038 
z"/>
<path fill="#070707" opacity="1.000000" stroke="none" 
	d="
M385.096313,536.975403 
	C385.096313,530.031616 385.096313,523.584473 385.096313,516.929504 
	C390.621918,516.805603 396.311890,515.349365 399.303650,521.033997 
	C403.057495,528.166565 402.880310,535.871033 399.630188,543.100647 
	C396.880463,549.217224 390.947632,548.032043 385.096313,547.870972 
	C385.096313,544.346619 385.096313,540.909302 385.096313,536.975403 
z"/>
<path fill="#050505" opacity="1.000000" stroke="none" 
	d="
M94.935349,548.519470 
	C89.129463,548.397705 85.958313,545.465942 84.483253,540.484131 
	C82.637230,534.249390 82.720238,528.072083 85.301788,522.038086 
	C86.979103,518.117554 90.117210,516.200806 94.285072,516.122009 
	C98.636475,516.039673 101.995964,517.876160 103.865631,521.937927 
	C106.710297,528.117737 106.753418,534.481934 104.695412,540.857300 
	C103.252754,545.326477 100.344910,548.231445 94.935349,548.519470 
z"/>
<path fill="#0B0B0B" opacity="1.000000" stroke="none" 
	d="
M344.740234,521.390503 
	C346.443695,526.202881 347.897766,530.723694 349.494110,535.686890 
	C346.091675,535.686890 343.095184,535.686890 339.225677,535.686890 
	C341.011749,530.738342 342.751282,525.918640 344.740234,521.390503 
z"/>
</svg>
